<svg width="170" height="170" viewBox="0 0 170 170" fill="none" xmlns="http://www.w3.org/2000/svg">
<g clip-path="url(#clip0_11004_1015)">
<rect x="84.8528" width="120" height="120" rx="24" transform="rotate(45 84.8528 0)" fill="#040A19"/>
<path d="M51.3593 70.4135V53.0276C51.7446 52.9153 52.1138 52.8591 52.467 52.8591C52.8844 52.8591 53.2616 52.9153 53.5987 53.0276V68.3185H62.099C62.1793 68.4469 62.2274 68.6476 62.2435 68.9205C62.2756 69.1774 62.2836 69.4503 62.2676 69.7392C62.2515 70.0121 62.1953 70.2369 62.099 70.4135H51.3593ZM63.2488 68.7279C63.6502 68.5994 64.1478 68.4148 64.7418 68.174C65.3358 67.9172 65.8976 67.6523 66.4274 67.3794C65.8976 66.352 65.6328 65.164 65.6328 63.8155C65.6328 62.8202 65.8174 61.9453 66.1866 61.1908C66.5558 60.4202 67.0695 59.8182 67.7277 59.3848C68.3859 58.9353 69.1324 58.7105 69.9672 58.7105C70.6735 58.7105 71.2996 58.8791 71.8454 59.2162C72.3912 59.5373 72.8166 59.9868 73.1217 60.5647C73.4267 61.1426 73.5792 61.8089 73.5792 62.5634C73.515 64.4898 72.1504 66.3118 69.4856 68.0295C70.0153 68.479 70.7538 68.7038 71.7009 68.7038C71.9257 68.7038 72.1023 68.8001 72.2307 68.9927C72.3591 69.1854 72.4233 69.4422 72.4233 69.7633C72.4233 70.0683 72.3511 70.3091 72.2066 70.4857C72.0621 70.6623 71.8534 70.7506 71.5805 70.7506C70.7458 70.7506 69.9672 70.6061 69.2448 70.3171C68.5384 70.0121 67.9685 69.5947 67.5351 69.065C66.9411 69.37 66.307 69.667 65.6328 69.9559C64.9746 70.2289 64.4127 70.4375 63.9471 70.582C63.6903 70.3573 63.5057 70.0924 63.3933 69.7874C63.2649 69.4824 63.2167 69.1292 63.2488 68.7279ZM67.7277 63.6229C67.7277 64.7627 67.9123 65.7098 68.2816 66.4643C69.3892 65.7259 70.1919 65.0677 70.6896 64.4898C71.1872 63.8958 71.4521 63.2537 71.4842 62.5634C71.4842 61.9854 71.3397 61.5359 71.0508 61.2149C70.7779 60.8778 70.3926 60.7092 69.8949 60.7092C69.2688 60.7092 68.7471 60.9901 68.3297 61.552C67.9284 62.1139 67.7277 62.8042 67.7277 63.6229ZM71.8305 70.7506C71.6058 70.7506 71.4292 70.6543 71.3008 70.4616C71.1563 70.269 71.0841 70.0202 71.0841 69.7151C71.0841 69.3941 71.1643 69.1452 71.3249 68.9687C71.4854 68.7921 71.6941 68.7038 71.9509 68.7038C72.9142 68.7038 73.7971 68.4469 74.5998 67.9332C75.4185 67.4035 76.0927 66.6891 76.6225 65.7901C76.5904 65.5493 76.5743 65.2924 76.5743 65.0195C76.5743 63.7995 76.8151 62.7159 77.2967 61.7687C77.7783 60.8216 78.4285 60.0751 79.2472 59.5293C80.082 58.9835 81.0291 58.7105 82.0887 58.7105C82.6505 58.7105 83.2044 58.8229 83.7502 59.0477C84.296 59.2564 84.7535 59.5453 85.1228 59.9146V58.9273C85.2672 58.8791 85.4358 58.839 85.6284 58.8069C85.8211 58.7748 86.0217 58.7587 86.2304 58.7587C86.6157 58.7587 86.9769 58.8149 87.314 58.9273V66.1995C87.314 67.0824 87.4264 67.7165 87.6512 68.1018C87.892 68.4871 88.2692 68.6797 88.7829 68.6797C89.0077 68.6797 89.1762 68.776 89.2886 68.9687C89.417 69.1613 89.4812 69.4182 89.4812 69.7392C89.4812 69.9961 89.409 70.2289 89.2645 70.4375C89.1361 70.6462 88.9194 70.7506 88.6144 70.7506C87.0893 70.7506 86.0619 70.1245 85.5321 68.8723C85.0666 69.4663 84.5047 69.9319 83.8465 70.269C83.1883 70.5901 82.4579 70.7506 81.6552 70.7506C80.692 70.7506 79.8412 70.5339 79.1027 70.1004C78.3803 69.667 77.8024 69.065 77.369 68.2944C76.6947 69.081 75.884 69.6911 74.9369 70.1245C73.9897 70.5419 72.9543 70.7506 71.8305 70.7506ZM78.8138 65.0195C78.8138 66.1593 79.0706 67.0583 79.5843 67.7165C80.1141 68.3586 80.8365 68.6797 81.7515 68.6797C82.7629 68.6797 83.5736 68.3346 84.1836 67.6443C84.8097 66.954 85.1228 66.0469 85.1228 64.9232V62.2262C84.8017 61.7928 84.3923 61.4477 83.8947 61.1908C83.397 60.9179 82.8833 60.7814 82.3535 60.7814C81.6632 60.7814 81.0532 60.966 80.5235 61.3353C79.9937 61.7045 79.5763 62.2102 79.2713 62.8523C78.9663 63.4784 78.8138 64.2008 78.8138 65.0195ZM89.0149 68.6797C89.5607 68.6797 90.0905 68.4148 90.6042 67.8851C91.1339 67.3392 91.5754 66.6088 91.9286 65.6938C91.9125 65.469 91.9045 65.2443 91.9045 65.0195C91.9045 63.7995 92.1453 62.7159 92.6269 61.7687C93.1085 60.8216 93.7587 60.0751 94.5774 59.5293C95.4122 58.9835 96.3593 58.7105 97.4188 58.7105C97.9807 58.7105 98.5345 58.8229 99.0804 59.0477C99.6262 59.2564 100.084 59.5453 100.453 59.9146V50.1862C100.758 50.0738 101.127 50.0176 101.561 50.0176C101.93 50.0176 102.291 50.0738 102.644 50.1862V66.1995C102.644 67.0824 102.757 67.7165 102.981 68.1018C103.222 68.4871 103.599 68.6797 104.113 68.6797C104.338 68.6797 104.506 68.776 104.619 68.9687C104.747 69.1613 104.811 69.4182 104.811 69.7392C104.811 69.9961 104.739 70.2289 104.595 70.4375C104.466 70.6462 104.25 70.7506 103.945 70.7506C102.419 70.7506 101.392 70.1245 100.862 68.8723C100.397 69.4663 99.8349 69.9319 99.1767 70.269C98.5185 70.5901 97.7881 70.7506 96.9854 70.7506C96.0543 70.7506 95.2275 70.5499 94.5051 70.1486C93.7988 69.7312 93.2209 69.1613 92.7714 68.4389C91.7761 69.98 90.4677 70.7506 88.8463 70.7506C88.6376 70.7506 88.4691 70.6543 88.3406 70.4616C88.2122 70.269 88.148 70.0202 88.148 69.7151C88.148 69.0248 88.437 68.6797 89.0149 68.6797ZM94.1439 65.0195C94.1439 66.1593 94.4008 67.0583 94.9145 67.7165C95.4443 68.3586 96.1667 68.6797 97.0817 68.6797C98.0931 68.6797 98.9038 68.3346 99.5138 67.6443C100.14 66.954 100.453 66.0469 100.453 64.9232V62.2262C100.132 61.7928 99.7225 61.4477 99.2248 61.1908C98.7272 60.9179 98.2135 60.7814 97.6837 60.7814C96.9934 60.7814 96.3834 60.966 95.8536 61.3353C95.3239 61.7045 94.9065 62.2102 94.6015 62.8523C94.2964 63.4784 94.1439 64.2008 94.1439 65.0195ZM104.184 70.7506C103.976 70.7506 103.807 70.6543 103.679 70.4616C103.55 70.269 103.486 70.0202 103.486 69.7151C103.486 69.0248 103.775 68.6797 104.353 68.6797C104.866 68.6797 105.436 68.3667 106.062 67.7406C106.689 67.0984 107.419 66.071 108.254 64.6583L110.83 60.2998C110.798 60.0751 110.782 59.8343 110.782 59.5774C110.782 58.7748 110.927 58.1808 111.216 57.7955C111.521 57.4102 111.769 57.1775 111.962 57.0972C112.235 57.033 112.524 57.041 112.829 57.1213C113.15 57.1855 113.439 57.2979 113.696 57.4584C113.953 57.6189 114.129 57.8116 114.226 58.0363C114.161 58.3253 114.041 58.6704 113.864 59.0718C113.688 59.4731 113.407 60.0109 113.022 60.6851C113.134 60.8617 113.278 61.0383 113.455 61.2149C113.632 61.3915 113.848 61.5841 114.105 61.7928L115.935 63.2858C116.593 63.8155 117.083 64.3694 117.404 64.9473C117.741 65.5092 117.91 66.1433 117.91 66.8496C117.91 67.5881 117.725 68.2543 117.356 68.8483C116.987 69.4422 116.473 69.9078 115.815 70.2449C115.157 70.582 114.394 70.7506 113.527 70.7506C112.965 70.7506 112.404 70.6623 111.842 70.4857C111.28 70.3252 110.694 70.0603 110.084 69.6911C110.052 68.8402 110.373 68.2142 111.047 67.8128C111.93 68.3907 112.765 68.6797 113.551 68.6797C114.226 68.6797 114.763 68.5031 115.165 68.1499C115.566 67.7807 115.767 67.3152 115.767 66.7533C115.767 66.0469 115.381 65.3888 114.611 64.7787L112.781 63.3339C112.46 63.0771 112.171 62.8122 111.914 62.5393L109.506 66.6088C108.623 68.1018 107.772 69.1693 106.953 69.8115C106.151 70.4375 105.228 70.7506 104.184 70.7506ZM46.9057 100.413C46.5204 100.526 46.1432 100.582 45.7739 100.582C45.3726 100.582 45.0034 100.526 44.6662 100.413V83.0276H50.0843C52.1391 83.0276 53.7043 83.4852 54.7799 84.4002C55.8715 85.3153 56.4173 86.5915 56.4173 88.2289C56.4173 90.0109 55.8234 91.3995 54.6354 92.3948C53.4635 93.3901 51.8742 93.8878 49.8675 93.8878H46.9057V100.413ZM50.0843 85.0985H46.9057V91.841H49.6508C51.1117 91.841 52.2194 91.544 52.9739 90.95C53.7284 90.356 54.1056 89.4731 54.1056 88.3012C54.1056 86.1661 52.7652 85.0985 50.0843 85.0985ZM61.0753 100.486C60.69 100.47 60.3288 100.405 59.9917 100.293C59.6546 100.165 59.3255 99.964 59.0044 99.6911C59.5021 98.6476 59.8793 97.4837 60.1362 96.1995C60.4091 94.8991 60.5456 93.5346 60.5456 92.1058C60.5456 91.8971 60.5375 91.6563 60.5215 91.3834C60.5054 91.0945 60.4733 90.8456 60.4252 90.637C60.2325 90.4604 60.0479 90.2115 59.8713 89.8905C59.6947 89.5533 59.5502 89.2082 59.4379 88.855C59.3416 88.5019 59.2934 88.2209 59.2934 88.0122C59.47 87.7875 59.7991 87.5948 60.2807 87.4343C60.7623 87.2577 61.2118 87.1694 61.6292 87.1694C61.7897 87.4584 61.9342 87.7875 62.0626 88.1567C62.191 88.5099 62.3034 88.8871 62.3997 89.2885C62.8171 89.2564 63.3549 89.16 64.0131 88.9995C64.5268 88.8871 64.9362 88.8149 65.2412 88.7828C65.5622 88.7346 65.8351 88.7105 66.0599 88.7105C66.9268 88.7105 67.609 89.0396 68.1067 89.6978C68.6044 90.34 68.8532 91.2149 68.8532 92.3226V96.1995C68.8532 97.0824 68.9656 97.7165 69.1903 98.1018C69.4311 98.4871 69.8084 98.6797 70.3221 98.6797C70.5468 98.6797 70.7154 98.776 70.8277 98.9687C70.9562 99.1613 71.0204 99.4182 71.0204 99.7392C71.0204 99.9961 70.9481 100.229 70.8037 100.438C70.6752 100.646 70.4585 100.751 70.1535 100.751C67.8258 100.751 66.6619 99.3218 66.6619 96.4643V92.7319C66.6619 92.0095 66.5816 91.5038 66.4211 91.2149C66.2606 90.9259 65.9716 90.7814 65.5542 90.7814C65.4097 90.7814 65.2492 90.7975 65.0726 90.8296C64.896 90.8617 64.583 90.9259 64.1335 91.0222C63.5074 91.1507 63.0178 91.239 62.6646 91.2871C62.6807 91.5761 62.6887 91.865 62.6887 92.154C62.6887 93.5667 62.5522 95.0195 62.2793 96.5125C62.0064 97.9894 61.6051 99.3138 61.0753 100.486ZM70.5584 98.6797C71.0881 98.6797 71.6018 98.4309 72.0995 97.9332C72.6132 97.4195 73.0466 96.7372 73.3998 95.8864C73.3356 95.5011 73.3035 95.1078 73.3035 94.7065C73.3035 93.5506 73.5523 92.5232 74.05 91.6242C74.5476 90.7252 75.2219 90.0189 76.0727 89.5052C76.9396 88.9754 77.9108 88.7105 78.9864 88.7105C80.062 88.7105 81.0252 88.9754 81.876 89.5052C82.7268 90.0189 83.393 90.7252 83.8746 91.6242C84.3723 92.5232 84.6211 93.5506 84.6211 94.7065C84.6211 95.8623 84.3723 96.8978 83.8746 97.8128C83.393 98.7279 82.7268 99.4503 81.876 99.98C81.0412 100.494 80.078 100.751 78.9864 100.751C78.0071 100.751 77.1162 100.542 76.3135 100.125C75.5269 99.6911 74.8767 99.1051 74.363 98.3667C73.3677 99.9559 72.0433 100.751 70.3898 100.751C70.1811 100.751 70.0125 100.654 69.8841 100.462C69.7557 100.269 69.6915 100.02 69.6915 99.7151C69.6915 99.0248 69.9804 98.6797 70.5584 98.6797ZM78.9623 98.6797C79.9897 98.6797 80.8084 98.3185 81.4185 97.5961C82.0445 96.8737 82.3576 95.9105 82.3576 94.7065C82.3576 94.1125 82.2693 93.5667 82.0927 93.069C81.1295 93.0369 80.2546 92.8443 79.468 92.4911C78.6974 92.1379 78.0874 91.6563 77.6379 91.0463C76.9958 91.3192 76.4901 91.7848 76.1208 92.443C75.7516 93.0851 75.567 93.8557 75.567 94.7546C75.567 95.9265 75.872 96.8737 76.4821 97.5961C77.1081 98.3185 77.9349 98.6797 78.9623 98.6797ZM91.3361 112.791C89.9876 112.791 89.0164 112.293 88.4224 111.298C87.8284 110.302 87.5314 108.93 87.5314 107.18V92.6838C86.9535 92.8282 86.3515 92.9486 85.7254 93.045C85.0993 93.1413 84.5294 93.1894 84.0157 93.1894C83.4539 93.1894 83.0445 93.1172 82.7876 92.9727C82.5308 92.8282 82.4024 92.5473 82.4024 92.1299C82.4024 91.841 82.4585 91.6323 82.5709 91.5038C82.6833 91.3594 82.8117 91.2871 82.9562 91.2871H83.6064C84.2485 91.2871 84.8987 91.2309 85.5569 91.1186C86.199 91.0062 86.8572 90.8456 87.5314 90.637V82.3534C87.5314 81.4865 87.5956 80.6999 87.7241 79.9936C87.8685 79.2712 88.1174 78.6531 88.4705 78.1394C88.7595 77.706 89.1287 77.3528 89.5782 77.0799C90.0438 76.807 90.6217 76.6705 91.312 76.6705C92.5642 76.6705 93.5274 77.2324 94.2016 78.3561C94.8758 79.4799 95.213 81.0691 95.213 83.124C95.213 84.6169 94.9722 85.9574 94.4906 87.1453C94.025 88.3333 93.3748 89.3366 92.5401 90.1554C91.7053 90.9741 90.7501 91.6002 89.6745 92.0336V96.5125C89.8993 96.2075 90.2043 95.9827 90.5896 95.8382C91.6973 96.1754 92.6444 96.9459 93.431 98.1499C93.9769 98.5031 94.5387 98.6797 95.1166 98.6797C95.3253 98.6797 95.4939 98.776 95.6223 98.9687C95.7508 99.1613 95.815 99.4182 95.815 99.7392C95.815 100.044 95.7347 100.285 95.5742 100.462C95.4297 100.654 95.221 100.751 94.9481 100.751C94.8357 100.751 94.7314 100.751 94.635 100.751C94.8919 101.553 95.0845 102.428 95.213 103.375C95.3574 104.339 95.4297 105.35 95.4297 106.409C95.4297 108.512 95.0765 110.102 94.3702 111.177C93.6799 112.253 92.6685 112.791 91.3361 112.791ZM89.6745 81.8477V89.9146C90.6699 89.3527 91.4806 88.4858 92.1066 87.3139C92.7488 86.126 93.0698 84.7213 93.0698 83.0999C93.0698 81.6551 92.9173 80.5554 92.6123 79.8009C92.3234 79.0464 91.8899 78.6692 91.312 78.6692C90.2204 78.6692 89.6745 79.7287 89.6745 81.8477ZM89.6745 107.18C89.6745 108.384 89.811 109.291 90.0839 109.901C90.3568 110.511 90.8143 110.816 91.4565 110.816C92.0504 110.816 92.508 110.423 92.829 109.636C93.1501 108.866 93.3106 107.734 93.3106 106.241C93.3106 103.704 92.9655 101.666 92.2752 100.125C91.7454 99.8998 91.2478 99.6349 90.7822 99.3299C90.3327 99.0248 89.9635 98.7038 89.6745 98.3667V107.18ZM95.3552 98.6797C95.6923 98.6797 96.0535 98.5754 96.4388 98.3667C96.8241 98.158 97.1853 97.8369 97.5224 97.4035C97.9237 96.8576 98.2127 96.2316 98.3893 95.5252C98.5819 94.8189 98.7023 94.1045 98.7505 93.3821V89.0477C98.895 88.9995 99.0635 88.9594 99.2562 88.9273C99.4488 88.8952 99.6495 88.8791 99.8582 88.8791C100.227 88.8791 100.589 88.9353 100.942 89.0477V95.9827C100.942 96.8336 101.07 97.4998 101.327 97.9814C101.6 98.4469 102.049 98.6797 102.676 98.6797C102.948 98.6797 103.133 98.7921 103.229 99.0168C103.326 99.2416 103.374 99.4824 103.374 99.7392C103.374 99.9961 103.302 100.229 103.157 100.438C103.029 100.646 102.812 100.751 102.507 100.751C100.837 100.751 99.7538 99.964 99.2562 98.3907C99.0314 98.76 98.7906 99.073 98.5338 99.3299C98.1003 99.7633 97.5946 100.108 97.0167 100.365C96.4548 100.622 95.8448 100.751 95.1866 100.751C94.9619 100.751 94.7933 100.638 94.6809 100.413C94.5525 100.205 94.4883 99.972 94.4883 99.7151C94.4883 99.4422 94.5605 99.2014 94.705 98.9927C94.8335 98.784 95.0502 98.6797 95.3552 98.6797ZM99.8822 85.5801C99.4327 85.5801 99.0475 85.4196 98.7264 85.0985C98.4053 84.7775 98.2448 84.3922 98.2448 83.9427C98.2448 83.4611 98.3973 83.0678 98.7023 82.7628C99.0234 82.4578 99.4167 82.3052 99.8822 82.3052C100.364 82.3052 100.757 82.4578 101.062 82.7628C101.367 83.0678 101.52 83.4611 101.52 83.9427C101.52 84.4082 101.359 84.8015 101.038 85.1226C100.733 85.4276 100.348 85.5801 99.8822 85.5801ZM102.741 100.751C102.532 100.751 102.364 100.654 102.235 100.462C102.107 100.269 102.042 100.02 102.042 99.7151C102.042 99.3941 102.123 99.1452 102.283 98.9687C102.428 98.776 102.628 98.6797 102.885 98.6797C103.399 98.6797 103.953 98.4951 104.547 98.1259C105.141 97.7566 105.719 97.2509 106.281 96.6088C106.152 96.0148 106.048 95.3165 105.968 94.5138C105.903 93.7112 105.855 92.7399 105.823 91.6002C105.791 90.4604 105.775 89.0878 105.775 87.4825H105.799L105.775 87.4584C105.775 86.0296 105.791 84.8176 105.823 83.8223C105.855 82.827 105.919 81.9922 106.016 81.318C106.112 80.6437 106.232 80.0738 106.377 79.6083C106.537 79.1267 106.738 78.6932 106.979 78.308C107.332 77.73 107.766 77.3126 108.279 77.0558C108.809 76.7989 109.387 76.6705 110.013 76.6705C111.265 76.6705 112.228 77.2243 112.903 78.332C113.577 79.4397 113.914 80.9648 113.914 82.9072C113.914 85.235 113.456 87.6269 112.541 90.0831C111.626 92.5393 110.318 94.8831 108.616 97.1145C108.841 97.6443 109.17 98.0456 109.604 98.3185C110.037 98.5754 110.535 98.7038 111.097 98.7038C111.321 98.7038 111.498 98.8001 111.626 98.9927C111.771 99.1693 111.843 99.4182 111.843 99.7392C111.843 100.413 111.546 100.751 110.952 100.751C110.085 100.751 109.315 100.566 108.64 100.197C107.966 99.8275 107.444 99.3539 107.075 98.776C105.743 100.092 104.298 100.751 102.741 100.751ZM107.918 87.6029C107.918 89.2885 107.926 90.6771 107.942 91.7687C107.974 92.8603 108.014 93.7593 108.063 94.4657C109.283 92.443 110.206 90.4684 110.832 88.542C111.458 86.5995 111.771 84.7133 111.771 82.8832C111.771 81.5507 111.618 80.5313 111.313 79.825C111.008 79.1026 110.575 78.7414 110.013 78.7414C109.387 78.7414 108.913 79.1106 108.592 79.8491C108.432 80.2344 108.295 80.724 108.183 81.318C108.087 81.8959 108.014 82.6825 107.966 83.6778C107.934 84.6731 107.918 85.9815 107.918 87.6029ZM111.227 100.751C111.018 100.751 110.842 100.654 110.697 100.462C110.553 100.269 110.48 100.036 110.48 99.7633C110.48 99.4262 110.561 99.1693 110.721 98.9927C110.866 98.8001 111.066 98.7038 111.323 98.7038C112.078 98.7038 112.84 98.6075 113.611 98.4148C114.365 98.2222 115.176 97.877 116.043 97.3794C115.561 96.3199 115.32 95.1319 115.32 93.8155C115.32 92.8363 115.505 91.9694 115.874 91.2149C116.26 90.4443 116.773 89.8343 117.415 89.3848C118.074 88.9353 118.812 88.7105 119.631 88.7105C120.321 88.7105 120.939 88.8711 121.485 89.1921C122.031 89.5132 122.464 89.9467 122.785 90.4925C123.106 91.0383 123.267 91.6563 123.267 92.3466C123.267 93.3741 122.906 94.3533 122.183 95.2844C121.461 96.2155 120.409 97.0904 119.029 97.9091C119.655 98.4389 120.522 98.7038 121.629 98.7038C122.095 98.7038 122.56 98.6396 123.026 98.5111C123.492 98.3827 123.941 98.2061 124.375 97.9814C124.615 98.158 124.792 98.4228 124.904 98.776C125.033 99.1131 125.097 99.4422 125.097 99.7633C124.567 100.068 124.005 100.309 123.411 100.486C122.817 100.662 122.191 100.751 121.533 100.751H121.509C120.61 100.751 119.783 100.606 119.029 100.317C118.274 100.012 117.656 99.5947 117.175 99.065C115.12 100.189 113.137 100.751 111.227 100.751ZM117.391 93.7433C117.391 94.8028 117.584 95.6536 117.969 96.2958C120.104 95.0597 121.172 93.7433 121.172 92.3466C121.172 91.8329 121.035 91.4316 120.762 91.1426C120.49 90.8537 120.112 90.7092 119.631 90.7092C118.989 90.7092 118.451 90.9982 118.017 91.5761C117.6 92.1379 117.391 92.8603 117.391 93.7433Z" fill="white"/>
</g>
<defs>
<clipPath id="clip0_11004_1015">
<rect x="84.8528" width="120" height="120" rx="24" transform="rotate(45 84.8528 0)" fill="white"/>
</clipPath>
</defs>
</svg>
