<svg width="40" height="40" viewBox="0 0 40 40" fill="none" xmlns="http://www.w3.org/2000/svg">
<path opacity="0.25" d="M16.6667 23.3333C20.3486 23.3333 23.3333 20.3486 23.3333 16.6667C23.3333 12.9848 20.3486 10 16.6667 10C12.9848 10 10 12.9848 10 16.6667C10 20.3486 12.9848 23.3333 16.6667 23.3333Z" fill="#151515"/>
<path opacity="0.25" fill-rule="evenodd" clip-rule="evenodd" d="M27.0352 30.41C27.0817 30.488 27.1002 30.5795 27.0878 30.6695C27.0754 30.7594 27.0327 30.8425 26.9668 30.905C24.185 33.5394 20.498 35.0052 16.6668 35C12.8356 35.0052 9.14862 33.5394 6.36683 30.905C6.30121 30.8423 6.25886 30.7591 6.24674 30.6692C6.23463 30.5792 6.25347 30.4878 6.30017 30.41C8.23683 27.1967 12.1518 25 16.6668 25C21.1818 25 25.0952 27.1967 27.0352 30.41Z" fill="#151515"/>
<path d="M30.834 17.5V27.5M25.834 22.5H35.834" stroke="#151515" stroke-width="1.66667" stroke-linecap="round"/>
</svg>
