<svg width="170" height="170" viewBox="0 0 170 170" fill="none" xmlns="http://www.w3.org/2000/svg">
<g clip-path="url(#clip0_11241_1564)">
<rect x="84.853" width="120" height="120" rx="24" transform="rotate(45 84.853 0)" fill="#2F6BFF"/>
<path d="M51.3596 70.4135V53.0276C51.7449 52.9153 52.1141 52.8591 52.4673 52.8591C52.8847 52.8591 53.262 52.9153 53.5991 53.0276V68.3185H62.0993C62.1796 68.4469 62.2278 68.6476 62.2438 68.9205C62.2759 69.1774 62.284 69.4503 62.2679 69.7392C62.2518 70.0121 62.1957 70.2369 62.0993 70.4135H51.3596ZM63.2492 68.7279C63.6505 68.5994 64.1482 68.4148 64.7421 68.174C65.3361 67.9172 65.898 67.6523 66.4277 67.3794C65.898 66.352 65.6331 65.164 65.6331 63.8155C65.6331 62.8202 65.8177 61.9453 66.1869 61.1908C66.5562 60.4202 67.0699 59.8182 67.7281 59.3848C68.3862 58.9353 69.1327 58.7105 69.9675 58.7105C70.6739 58.7105 71.2999 58.8791 71.8458 59.2162C72.3916 59.5373 72.817 59.9868 73.122 60.5647C73.427 61.1426 73.5795 61.8089 73.5795 62.5634C73.5153 64.4898 72.1508 66.3118 69.4859 68.0295C70.0157 68.479 70.7541 68.7038 71.7013 68.7038C71.926 68.7038 72.1026 68.8001 72.231 68.9927C72.3595 69.1854 72.4237 69.4422 72.4237 69.7633C72.4237 70.0683 72.3514 70.3091 72.207 70.4857C72.0625 70.6623 71.8538 70.7506 71.5809 70.7506C70.7461 70.7506 69.9675 70.6061 69.2451 70.3171C68.5388 70.0121 67.9689 69.5947 67.5354 69.065C66.9414 69.37 66.3073 69.667 65.6331 69.9559C64.9749 70.2289 64.413 70.4375 63.9475 70.582C63.6906 70.3573 63.506 70.0924 63.3936 69.7874C63.2652 69.4824 63.2171 69.1292 63.2492 68.7279ZM67.7281 63.6229C67.7281 64.7627 67.9127 65.7098 68.2819 66.4643C69.3896 65.7259 70.1923 65.0677 70.6899 64.4898C71.1876 63.8958 71.4524 63.2537 71.4846 62.5634C71.4846 61.9854 71.3401 61.5359 71.0511 61.2149C70.7782 60.8778 70.3929 60.7092 69.8953 60.7092C69.2692 60.7092 68.7474 60.9901 68.3301 61.552C67.9287 62.1139 67.7281 62.8042 67.7281 63.6229ZM71.8309 70.7506C71.6061 70.7506 71.4296 70.6543 71.3011 70.4616C71.1566 70.269 71.0844 70.0202 71.0844 69.7151C71.0844 69.3941 71.1647 69.1452 71.3252 68.9687C71.4857 68.7921 71.6944 68.7038 71.9513 68.7038C72.9145 68.7038 73.7974 68.4469 74.6001 67.9332C75.4188 67.4035 76.0931 66.6891 76.6228 65.7901C76.5907 65.5493 76.5747 65.2924 76.5747 65.0195C76.5747 63.7995 76.8155 62.7159 77.2971 61.7687C77.7787 60.8216 78.4288 60.0751 79.2475 59.5293C80.0823 58.9835 81.0295 58.7105 82.089 58.7105C82.6509 58.7105 83.2047 58.8229 83.7505 59.0477C84.2963 59.2564 84.7539 59.5453 85.1231 59.9146V58.9273C85.2676 58.8791 85.4361 58.839 85.6288 58.8069C85.8214 58.7748 86.0221 58.7587 86.2308 58.7587C86.6161 58.7587 86.9773 58.8149 87.3144 58.9273V66.1995C87.3144 67.0824 87.4267 67.7165 87.6515 68.1018C87.8923 68.4871 88.2696 68.6797 88.7833 68.6797C89.008 68.6797 89.1766 68.776 89.2889 68.9687C89.4174 69.1613 89.4816 69.4182 89.4816 69.7392C89.4816 69.9961 89.4093 70.2289 89.2649 70.4375C89.1364 70.6462 88.9197 70.7506 88.6147 70.7506C87.0896 70.7506 86.0622 70.1245 85.5325 68.8723C85.0669 69.4663 84.505 69.9319 83.8468 70.269C83.1887 70.5901 82.4582 70.7506 81.6556 70.7506C80.6924 70.7506 79.8415 70.5339 79.1031 70.1004C78.3807 69.667 77.8027 69.065 77.3693 68.2944C76.6951 69.081 75.8844 69.6911 74.9372 70.1245C73.9901 70.5419 72.9546 70.7506 71.8309 70.7506ZM78.8141 65.0195C78.8141 66.1593 79.071 67.0583 79.5847 67.7165C80.1144 68.3586 80.8368 68.6797 81.7519 68.6797C82.7632 68.6797 83.5739 68.3346 84.184 67.6443C84.81 66.954 85.1231 66.0469 85.1231 64.9232V62.2262C84.802 61.7928 84.3927 61.4477 83.895 61.1908C83.3974 60.9179 82.8836 60.7814 82.3539 60.7814C81.6636 60.7814 81.0536 60.966 80.5238 61.3353C79.994 61.7045 79.5766 62.2102 79.2716 62.8523C78.9666 63.4784 78.8141 64.2008 78.8141 65.0195ZM89.0152 68.6797C89.561 68.6797 90.0908 68.4148 90.6045 67.8851C91.1343 67.3392 91.5757 66.6088 91.9289 65.6938C91.9129 65.469 91.9048 65.2443 91.9048 65.0195C91.9048 63.7995 92.1456 62.7159 92.6272 61.7687C93.1088 60.8216 93.759 60.0751 94.5777 59.5293C95.4125 58.9835 96.3596 58.7105 97.4192 58.7105C97.981 58.7105 98.5349 58.8229 99.0807 59.0477C99.6265 59.2564 100.084 59.5453 100.453 59.9146V50.1862C100.758 50.0738 101.127 50.0176 101.561 50.0176C101.93 50.0176 102.291 50.0738 102.645 50.1862V66.1995C102.645 67.0824 102.757 67.7165 102.982 68.1018C103.222 68.4871 103.6 68.6797 104.113 68.6797C104.338 68.6797 104.507 68.776 104.619 68.9687C104.748 69.1613 104.812 69.4182 104.812 69.7392C104.812 69.9961 104.74 70.2289 104.595 70.4375C104.467 70.6462 104.25 70.7506 103.945 70.7506C102.42 70.7506 101.392 70.1245 100.863 68.8723C100.397 69.4663 99.8352 69.9319 99.177 70.269C98.5188 70.5901 97.7884 70.7506 96.9857 70.7506C96.0546 70.7506 95.2279 70.5499 94.5055 70.1486C93.7991 69.7312 93.2212 69.1613 92.7717 68.4389C91.7764 69.98 90.4681 70.7506 88.8467 70.7506C88.638 70.7506 88.4694 70.6543 88.341 70.4616C88.2125 70.269 88.1483 70.0202 88.1483 69.7151C88.1483 69.0248 88.4373 68.6797 89.0152 68.6797ZM94.1443 65.0195C94.1443 66.1593 94.4011 67.0583 94.9148 67.7165C95.4446 68.3586 96.167 68.6797 97.082 68.6797C98.0934 68.6797 98.9041 68.3346 99.5141 67.6443C100.14 66.954 100.453 66.0469 100.453 64.9232V62.2262C100.132 61.7928 99.7228 61.4477 99.2252 61.1908C98.7275 60.9179 98.2138 60.7814 97.684 60.7814C96.9938 60.7814 96.3837 60.966 95.854 61.3353C95.3242 61.7045 94.9068 62.2102 94.6018 62.8523C94.2968 63.4784 94.1443 64.2008 94.1443 65.0195ZM104.185 70.7506C103.976 70.7506 103.807 70.6543 103.679 70.4616C103.55 70.269 103.486 70.0202 103.486 69.7151C103.486 69.0248 103.775 68.6797 104.353 68.6797C104.867 68.6797 105.437 68.3667 106.063 67.7406C106.689 67.0984 107.419 66.071 108.254 64.6583L110.831 60.2998C110.799 60.0751 110.782 59.8343 110.782 59.5774C110.782 58.7748 110.927 58.1808 111.216 57.7955C111.521 57.4102 111.77 57.1775 111.962 57.0972C112.235 57.033 112.524 57.041 112.829 57.1213C113.15 57.1855 113.439 57.2979 113.696 57.4584C113.953 57.6189 114.13 57.8116 114.226 58.0363C114.162 58.3253 114.041 58.6704 113.865 59.0718C113.688 59.4731 113.407 60.0109 113.022 60.6851C113.134 60.8617 113.279 61.0383 113.455 61.2149C113.632 61.3915 113.849 61.5841 114.106 61.7928L115.936 63.2858C116.594 63.8155 117.083 64.3694 117.404 64.9473C117.742 65.5092 117.91 66.1433 117.91 66.8496C117.91 67.5881 117.726 68.2543 117.356 68.8483C116.987 69.4422 116.473 69.9078 115.815 70.2449C115.157 70.582 114.394 70.7506 113.528 70.7506C112.966 70.7506 112.404 70.6623 111.842 70.4857C111.28 70.3252 110.694 70.0603 110.084 69.6911C110.052 68.8402 110.373 68.2142 111.047 67.8128C111.93 68.3907 112.765 68.6797 113.552 68.6797C114.226 68.6797 114.764 68.5031 115.165 68.1499C115.566 67.7807 115.767 67.3152 115.767 66.7533C115.767 66.0469 115.382 65.3888 114.611 64.7787L112.781 63.3339C112.46 63.0771 112.171 62.8122 111.914 62.5393L109.506 66.6088C108.623 68.1018 107.772 69.1693 106.954 69.8115C106.151 70.4375 105.228 70.7506 104.185 70.7506ZM46.906 100.413C46.5208 100.526 46.1435 100.582 45.7743 100.582C45.3729 100.582 45.0037 100.526 44.6666 100.413V83.0276H50.0846C52.1394 83.0276 53.7046 83.4852 54.7802 84.4002C55.8718 85.3153 56.4177 86.5915 56.4177 88.2289C56.4177 90.0109 55.8237 91.3995 54.6357 92.3948C53.4638 93.3901 51.8746 93.8878 49.8679 93.8878H46.906V100.413ZM50.0846 85.0985H46.906V91.841H49.6512C51.112 91.841 52.2197 91.544 52.9742 90.95C53.7287 90.356 54.106 89.4731 54.106 88.3012C54.106 86.1661 52.7655 85.0985 50.0846 85.0985ZM61.0757 100.486C60.6904 100.47 60.3292 100.405 59.992 100.293C59.6549 100.165 59.3258 99.964 59.0048 99.6911C59.5024 98.6476 59.8797 97.4837 60.1365 96.1995C60.4094 94.8991 60.5459 93.5346 60.5459 92.1058C60.5459 91.8971 60.5379 91.6563 60.5218 91.3834C60.5058 91.0945 60.4737 90.8456 60.4255 90.637C60.2329 90.4604 60.0482 90.2115 59.8716 89.8905C59.6951 89.5533 59.5506 89.2082 59.4382 88.855C59.3419 88.5019 59.2937 88.2209 59.2937 88.0122C59.4703 87.7875 59.7994 87.5948 60.281 87.4343C60.7626 87.2577 61.2121 87.1694 61.6295 87.1694C61.79 87.4584 61.9345 87.7875 62.0629 88.1567C62.1914 88.5099 62.3037 88.8871 62.4001 89.2885C62.8174 89.2564 63.3552 89.16 64.0134 88.9995C64.5271 88.8871 64.9365 88.8149 65.2415 88.7828C65.5626 88.7346 65.8355 88.7105 66.0602 88.7105C66.9271 88.7105 67.6094 89.0396 68.107 89.6978C68.6047 90.34 68.8535 91.2149 68.8535 92.3226V96.1995C68.8535 97.0824 68.9659 97.7165 69.1906 98.1018C69.4314 98.4871 69.8087 98.6797 70.3224 98.6797C70.5472 98.6797 70.7157 98.776 70.8281 98.9687C70.9565 99.1613 71.0207 99.4182 71.0207 99.7392C71.0207 99.9961 70.9485 100.229 70.804 100.438C70.6756 100.646 70.4589 100.751 70.1538 100.751C67.8261 100.751 66.6622 99.3218 66.6622 96.4643V92.7319C66.6622 92.0095 66.582 91.5038 66.4214 91.2149C66.2609 90.9259 65.9719 90.7814 65.5545 90.7814C65.4101 90.7814 65.2495 90.7975 65.0729 90.8296C64.8964 90.8617 64.5833 90.9259 64.1338 91.0222C63.5077 91.1507 63.0181 91.239 62.6649 91.2871C62.681 91.5761 62.689 91.865 62.689 92.154C62.689 93.5667 62.5526 95.0195 62.2797 96.5125C62.0067 97.9894 61.6054 99.3138 61.0757 100.486ZM70.5587 98.6797C71.0885 98.6797 71.6022 98.4309 72.0998 97.9332C72.6135 97.4195 73.047 96.7372 73.4001 95.8864C73.3359 95.5011 73.3038 95.1078 73.3038 94.7065C73.3038 93.5506 73.5526 92.5232 74.0503 91.6242C74.548 90.7252 75.2222 90.0189 76.073 89.5052C76.9399 88.9754 77.9111 88.7105 78.9867 88.7105C80.0623 88.7105 81.0255 88.9754 81.8763 89.5052C82.7272 90.0189 83.3934 90.7252 83.875 91.6242C84.3726 92.5232 84.6215 93.5506 84.6215 94.7065C84.6215 95.8623 84.3726 96.8978 83.875 97.8128C83.3934 98.7279 82.7272 99.4503 81.8763 99.98C81.0415 100.494 80.0783 100.751 78.9867 100.751C78.0075 100.751 77.1165 100.542 76.3138 100.125C75.5272 99.6911 74.877 99.1051 74.3633 98.3667C73.368 99.9559 72.0436 100.751 70.3901 100.751C70.1814 100.751 70.0129 100.654 69.8844 100.462C69.756 100.269 69.6918 100.02 69.6918 99.7151C69.6918 99.0248 69.9808 98.6797 70.5587 98.6797ZM78.9626 98.6797C79.9901 98.6797 80.8088 98.3185 81.4188 97.5961C82.0449 96.8737 82.3579 95.9105 82.3579 94.7065C82.3579 94.1125 82.2696 93.5667 82.093 93.069C81.1298 93.0369 80.2549 92.8443 79.4683 92.4911C78.6978 92.1379 78.0877 91.6563 77.6382 91.0463C76.9961 91.3192 76.4904 91.7848 76.1212 92.443C75.752 93.0851 75.5673 93.8557 75.5673 94.7546C75.5673 95.9265 75.8724 96.8737 76.4824 97.5961C77.1085 98.3185 77.9352 98.6797 78.9626 98.6797ZM91.3364 112.791C89.9879 112.791 89.0167 112.293 88.4227 111.298C87.8287 110.302 87.5318 108.93 87.5318 107.18V92.6838C86.9538 92.8282 86.3518 92.9486 85.7257 93.045C85.0997 93.1413 84.5298 93.1894 84.0161 93.1894C83.4542 93.1894 83.0448 93.1172 82.788 92.9727C82.5311 92.8282 82.4027 92.5473 82.4027 92.1299C82.4027 91.841 82.4589 91.6323 82.5713 91.5038C82.6836 91.3594 82.8121 91.2871 82.9565 91.2871H83.6067C84.2488 91.2871 84.899 91.2309 85.5572 91.1186C86.1993 91.0062 86.8575 90.8456 87.5318 90.637V82.3534C87.5318 81.4865 87.596 80.6999 87.7244 79.9936C87.8689 79.2712 88.1177 78.6531 88.4709 78.1394C88.7598 77.706 89.1291 77.3528 89.5786 77.0799C90.0441 76.807 90.622 76.6705 91.3123 76.6705C92.5645 76.6705 93.5277 77.2324 94.2019 78.3561C94.8762 79.4799 95.2133 81.0691 95.2133 83.124C95.2133 84.6169 94.9725 85.9574 94.4909 87.1453C94.0253 88.3333 93.3752 89.3366 92.5404 90.1554C91.7056 90.9741 90.7505 91.6002 89.6749 92.0336V96.5125C89.8996 96.2075 90.2046 95.9827 90.5899 95.8382C91.6976 96.1754 92.6448 96.9459 93.4314 98.1499C93.9772 98.5031 94.5391 98.6797 95.117 98.6797C95.3257 98.6797 95.4942 98.776 95.6227 98.9687C95.7511 99.1613 95.8153 99.4182 95.8153 99.7392C95.8153 100.044 95.735 100.285 95.5745 100.462C95.43 100.654 95.2213 100.751 94.9484 100.751C94.836 100.751 94.7317 100.751 94.6354 100.751C94.8922 101.553 95.0849 102.428 95.2133 103.375C95.3578 104.339 95.43 105.35 95.43 106.409C95.43 108.512 95.0768 110.102 94.3705 111.177C93.6802 112.253 92.6688 112.791 91.3364 112.791ZM89.6749 81.8477V89.9146C90.6702 89.3527 91.4809 88.4858 92.107 87.3139C92.7491 86.126 93.0702 84.7213 93.0702 83.0999C93.0702 81.6551 92.9177 80.5554 92.6127 79.8009C92.3237 79.0464 91.8902 78.6692 91.3123 78.6692C90.2207 78.6692 89.6749 79.7287 89.6749 81.8477ZM89.6749 107.18C89.6749 108.384 89.8113 109.291 90.0842 109.901C90.3572 110.511 90.8147 110.816 91.4568 110.816C92.0508 110.816 92.5083 110.423 92.8294 109.636C93.1504 108.866 93.311 107.734 93.311 106.241C93.311 103.704 92.9658 101.666 92.2755 100.125C91.7458 99.8998 91.2481 99.6349 90.7826 99.3299C90.3331 99.0248 89.9638 98.7038 89.6749 98.3667V107.18ZM95.3555 98.6797C95.6926 98.6797 96.0538 98.5754 96.4391 98.3667C96.8244 98.158 97.1856 97.8369 97.5227 97.4035C97.9241 96.8576 98.213 96.2316 98.3896 95.5252C98.5823 94.8189 98.7027 94.1045 98.7508 93.3821V89.0477C98.8953 88.9995 99.0639 88.9594 99.2565 88.9273C99.4491 88.8952 99.6498 88.8791 99.8585 88.8791C100.228 88.8791 100.589 88.9353 100.942 89.0477V95.9827C100.942 96.8336 101.071 97.4998 101.327 97.9814C101.6 98.4469 102.05 98.6797 102.676 98.6797C102.949 98.6797 103.133 98.7921 103.23 99.0168C103.326 99.2416 103.374 99.4824 103.374 99.7392C103.374 99.9961 103.302 100.229 103.157 100.438C103.029 100.646 102.812 100.751 102.507 100.751C100.838 100.751 99.7542 99.964 99.2565 98.3907C99.0317 98.76 98.7909 99.073 98.5341 99.3299C98.1007 99.7633 97.595 100.108 97.017 100.365C96.4552 100.622 95.8452 100.751 95.187 100.751C94.9622 100.751 94.7937 100.638 94.6813 100.413C94.5529 100.205 94.4886 99.972 94.4886 99.7151C94.4886 99.4422 94.5609 99.2014 94.7054 98.9927C94.8338 98.784 95.0505 98.6797 95.3555 98.6797ZM99.8826 85.5801C99.4331 85.5801 99.0478 85.4196 98.7267 85.0985C98.4057 84.7775 98.2451 84.3922 98.2451 83.9427C98.2451 83.4611 98.3976 83.0678 98.7027 82.7628C99.0237 82.4578 99.417 82.3052 99.8826 82.3052C100.364 82.3052 100.757 82.4578 101.063 82.7628C101.368 83.0678 101.52 83.4611 101.52 83.9427C101.52 84.4082 101.359 84.8015 101.038 85.1226C100.733 85.4276 100.348 85.5801 99.8826 85.5801ZM102.741 100.751C102.532 100.751 102.364 100.654 102.235 100.462C102.107 100.269 102.043 100.02 102.043 99.7151C102.043 99.3941 102.123 99.1452 102.284 98.9687C102.428 98.776 102.629 98.6797 102.886 98.6797C103.399 98.6797 103.953 98.4951 104.547 98.1259C105.141 97.7566 105.719 97.2509 106.281 96.6088C106.152 96.0148 106.048 95.3165 105.968 94.5138C105.904 93.7112 105.856 92.7399 105.823 91.6002C105.791 90.4604 105.775 89.0878 105.775 87.4825H105.799L105.775 87.4584C105.775 86.0296 105.791 84.8176 105.823 83.8223C105.856 82.827 105.92 81.9922 106.016 81.318C106.112 80.6437 106.233 80.0738 106.377 79.6083C106.538 79.1267 106.738 78.6932 106.979 78.308C107.332 77.73 107.766 77.3126 108.28 77.0558C108.809 76.7989 109.387 76.6705 110.013 76.6705C111.265 76.6705 112.229 77.2243 112.903 78.332C113.577 79.4397 113.914 80.9648 113.914 82.9072C113.914 85.235 113.457 87.6269 112.542 90.0831C111.627 92.5393 110.318 94.8831 108.617 97.1145C108.841 97.6443 109.171 98.0456 109.604 98.3185C110.037 98.5754 110.535 98.7038 111.097 98.7038C111.322 98.7038 111.498 98.8001 111.627 98.9927C111.771 99.1693 111.843 99.4182 111.843 99.7392C111.843 100.413 111.546 100.751 110.952 100.751C110.086 100.751 109.315 100.566 108.641 100.197C107.967 99.8275 107.445 99.3539 107.076 98.776C105.743 100.092 104.298 100.751 102.741 100.751ZM107.918 87.6029C107.918 89.2885 107.926 90.6771 107.942 91.7687C107.975 92.8603 108.015 93.7593 108.063 94.4657C109.283 92.443 110.206 90.4684 110.832 88.542C111.458 86.5995 111.771 84.7133 111.771 82.8832C111.771 81.5507 111.619 80.5313 111.314 79.825C111.009 79.1026 110.575 78.7414 110.013 78.7414C109.387 78.7414 108.914 79.1106 108.593 79.8491C108.432 80.2344 108.296 80.724 108.183 81.318C108.087 81.8959 108.015 82.6825 107.967 83.6778C107.934 84.6731 107.918 85.9815 107.918 87.6029ZM111.227 100.751C111.018 100.751 110.842 100.654 110.697 100.462C110.553 100.269 110.481 100.036 110.481 99.7633C110.481 99.4262 110.561 99.1693 110.721 98.9927C110.866 98.8001 111.067 98.7038 111.323 98.7038C112.078 98.7038 112.84 98.6075 113.611 98.4148C114.366 98.2222 115.176 97.877 116.043 97.3794C115.562 96.3199 115.321 95.1319 115.321 93.8155C115.321 92.8363 115.505 91.9694 115.875 91.2149C116.26 90.4443 116.774 89.8343 117.416 89.3848C118.074 88.9353 118.812 88.7105 119.631 88.7105C120.321 88.7105 120.939 88.8711 121.485 89.1921C122.031 89.5132 122.464 89.9467 122.786 90.4925C123.107 91.0383 123.267 91.6563 123.267 92.3466C123.267 93.3741 122.906 94.3533 122.184 95.2844C121.461 96.2155 120.41 97.0904 119.029 97.9091C119.655 98.4389 120.522 98.7038 121.63 98.7038C122.095 98.7038 122.561 98.6396 123.026 98.5111C123.492 98.3827 123.941 98.2061 124.375 97.9814C124.616 98.158 124.792 98.4228 124.905 98.776C125.033 99.1131 125.097 99.4422 125.097 99.7633C124.567 100.068 124.006 100.309 123.412 100.486C122.818 100.662 122.192 100.751 121.533 100.751H121.509C120.61 100.751 119.784 100.606 119.029 100.317C118.275 100.012 117.657 99.5947 117.175 99.065C115.12 100.189 113.137 100.751 111.227 100.751ZM117.392 93.7433C117.392 94.8028 117.584 95.6536 117.97 96.2958C120.105 95.0597 121.172 93.7433 121.172 92.3466C121.172 91.8329 121.036 91.4316 120.763 91.1426C120.49 90.8537 120.113 90.7092 119.631 90.7092C118.989 90.7092 118.451 90.9982 118.018 91.5761C117.6 92.1379 117.392 92.8603 117.392 93.7433Z" fill="white"/>
</g>
<defs>
<clipPath id="clip0_11241_1564">
<rect x="84.853" width="120" height="120" rx="24" transform="rotate(45 84.853 0)" fill="white"/>
</clipPath>
</defs>
</svg>
