<svg width="24" height="24" viewBox="0 0 24 24" fill="none" xmlns="http://www.w3.org/2000/svg">
<path opacity="0.25" d="M20 12C20 9.2 20 7.8 19.455 6.73C18.9756 5.78923 18.2108 5.02436 17.27 4.545C16.2 4 14.8 4 12 4C9.2 4 7.8 4 6.73 4.545C5.78923 5.02436 5.02436 5.78923 4.545 6.73C4 7.8 4 9.2 4 12V18C4 18.943 4 19.414 4.293 19.707C4.586 20 5.057 20 6 20H12C14.8 20 16.2 20 17.27 19.455C18.2108 18.9756 18.9756 18.2108 19.455 17.27C20 16.2 20 14.8 20 12Z" fill="#2F6BFF"/>
<path d="M8.5 8.5H15.5M8.5 11.5H13.5" stroke="#2F6BFF" stroke-linecap="round" stroke-linejoin="round"/>
<path d="M16.5 17.5C17.6046 17.5 18.5 16.6046 18.5 15.5C18.5 14.3954 17.6046 13.5 16.5 13.5C15.3954 13.5 14.5 14.3954 14.5 15.5C14.5 16.6046 15.3954 17.5 16.5 17.5Z" stroke="#2F6BFF"/>
<path d="M19 18L20.5 19.5" stroke="#2F6BFF" stroke-linecap="round"/>
</svg>
