<svg width="16" height="16" viewBox="0 0 16 16" fill="none" xmlns="http://www.w3.org/2000/svg">
<path d="M12.2366 4.35992H10.9433V3.12659C10.9439 2.77314 10.8401 2.42739 10.6449 2.13276C10.4496 1.83813 10.1717 1.60776 9.84595 1.47059C9.6295 1.38081 9.39761 1.33416 9.16328 1.33325H3.79661C3.56199 1.33413 3.32983 1.38121 3.11339 1.4718C2.89696 1.5624 2.70049 1.69474 2.5352 1.86126C2.36991 2.02779 2.23904 2.22524 2.15006 2.44235C2.06108 2.65945 2.01574 2.89196 2.01661 3.12659V9.85325C2.01574 10.0879 2.06108 10.3204 2.15006 10.5375C2.23904 10.7546 2.36991 10.952 2.5352 11.1186C2.70049 11.2851 2.89696 11.4174 3.11339 11.508C3.32983 11.5986 3.56199 11.6457 3.79661 11.6466H5.08995V12.8799C5.08994 13.3526 5.27727 13.8061 5.61089 14.1409C5.94451 14.4758 6.39725 14.6648 6.86995 14.6666H12.2033C12.676 14.6648 13.1287 14.4758 13.4623 14.1409C13.796 13.8061 13.9833 13.3526 13.9833 12.8799V6.15325C13.9834 5.68561 13.8009 5.2364 13.4746 4.90139C13.1483 4.56639 12.7041 4.37209 12.2366 4.35992ZM5.08995 6.15325V10.6466H3.79661C3.69331 10.6457 3.59118 10.6245 3.49607 10.5842C3.40096 10.5438 3.31473 10.4851 3.2423 10.4115C3.16987 10.3378 3.11266 10.2506 3.07394 10.1548C3.03521 10.059 3.01573 9.95656 3.01661 9.85325V3.12659C3.01573 3.02328 3.03521 2.92081 3.07394 2.82503C3.11266 2.72925 3.16987 2.64204 3.2423 2.56837C3.31473 2.4947 3.40096 2.43602 3.49607 2.39568C3.59118 2.35534 3.69331 2.33412 3.79661 2.33325H9.16328C9.26659 2.33412 9.36871 2.35534 9.46382 2.39568C9.55893 2.43602 9.64516 2.4947 9.71759 2.56837C9.79002 2.64204 9.84723 2.72925 9.88596 2.82503C9.92468 2.92081 9.94416 3.02328 9.94328 3.12659V4.35992H6.86995C6.39664 4.36344 5.94392 4.55393 5.61048 4.88986C5.27704 5.2258 5.08993 5.67993 5.08995 6.15325Z" fill="#1C4099"/>
</svg>
