<svg width="13" height="13" viewBox="0 0 13 13" fill="none" xmlns="http://www.w3.org/2000/svg">
<path d="M6 12.5V11.1667C6 10.8905 6.22386 10.6667 6.5 10.6667C6.77614 10.6667 7 10.8905 7 11.1667V12.5C7 12.7761 6.77614 13 6.5 13C6.22386 13 6 12.7761 6 12.5ZM2.84635 9.44661C3.04162 9.25135 3.35812 9.25135 3.55339 9.44661C3.74865 9.64188 3.74865 9.95838 3.55339 10.1536L2.61068 11.0964C2.4154 11.2914 2.09885 11.2916 1.90365 11.0964C1.70844 10.9011 1.70856 10.5846 1.90365 10.3893L2.84635 9.44661ZM9.44661 9.44661C9.64188 9.25135 9.95838 9.25135 10.1536 9.44661L11.0964 10.3893C11.2914 10.5846 11.2916 10.9012 11.0964 11.0964C10.9012 11.2916 10.5846 11.2914 10.3893 11.0964L9.44661 10.1536C9.25135 9.95838 9.25135 9.64188 9.44661 9.44661ZM8.66667 6.5C8.66667 5.92536 8.43823 5.37443 8.0319 4.9681C7.62557 4.56177 7.07464 4.33333 6.5 4.33333C5.92536 4.33333 5.37443 4.56177 4.9681 4.9681C4.56177 5.37443 4.33333 5.92536 4.33333 6.5C4.33333 7.07464 4.56177 7.62557 4.9681 8.0319C5.37443 8.43823 5.92536 8.66667 6.5 8.66667C7.07464 8.66667 7.62557 8.43823 8.0319 8.0319C8.43823 7.62557 8.66667 7.07464 8.66667 6.5ZM1.83333 6C2.10948 6 2.33333 6.22386 2.33333 6.5C2.33333 6.77614 2.10948 7 1.83333 7H0.5C0.223858 7 0 6.77614 0 6.5C0 6.22386 0.223858 6 0.5 6H1.83333ZM12.5 6C12.7761 6 13 6.22386 13 6.5C13 6.77614 12.7761 7 12.5 7H11.1667C10.8905 7 10.6667 6.77614 10.6667 6.5C10.6667 6.22386 10.8905 6 11.1667 6H12.5ZM1.90365 1.90365C2.09885 1.70844 2.4154 1.70856 2.61068 1.90365L3.55339 2.84635C3.74865 3.04162 3.74865 3.35812 3.55339 3.55339C3.35812 3.74865 3.04162 3.74865 2.84635 3.55339L1.90365 2.61068C1.70856 2.4154 1.70844 2.09885 1.90365 1.90365ZM10.3893 1.90365C10.5846 1.70856 10.9011 1.70844 11.0964 1.90365C11.2916 2.09885 11.2914 2.4154 11.0964 2.61068L10.1536 3.55339C9.95838 3.74865 9.64188 3.74865 9.44661 3.55339C9.25135 3.35812 9.25135 3.04162 9.44661 2.84635L10.3893 1.90365ZM6 1.83333V0.5C6 0.223858 6.22386 0 6.5 0C6.77614 0 7 0.223858 7 0.5V1.83333C7 2.10948 6.77614 2.33333 6.5 2.33333C6.22386 2.33333 6 2.10948 6 1.83333ZM9.66667 6.5C9.66667 7.33985 9.3328 8.14507 8.73893 8.73893C8.14507 9.3328 7.33985 9.66667 6.5 9.66667C5.66015 9.66667 4.85493 9.3328 4.26107 8.73893C3.6672 8.14507 3.33333 7.33985 3.33333 6.5C3.33333 5.66015 3.6672 4.85493 4.26107 4.26107C4.85493 3.6672 5.66015 3.33333 6.5 3.33333C7.33985 3.33333 8.14507 3.6672 8.73893 4.26107C9.3328 4.85493 9.66667 5.66015 9.66667 6.5Z" fill="white"/>
</svg>
