<svg width="24" height="24" viewBox="0 0 24 24" fill="none" xmlns="http://www.w3.org/2000/svg">
<path opacity="0.25" fill-rule="evenodd" clip-rule="evenodd" d="M14 4.92V3H8.4C7.56 3 7.14 3 6.819 3.163C6.53651 3.30685 6.30685 3.53651 6.163 3.819C6 4.139 6 4.559 6 5.4V8H8.264C8.496 8 8.759 7.999 9.017 8.06C9.2412 8.11417 9.45548 8.20326 9.652 8.324C9.878 8.463 10.064 8.649 10.228 8.814L10.27 8.855L12.145 10.73C12.2266 10.8128 12.3099 10.8938 12.395 10.973C12.4117 10.9823 12.429 10.989 12.447 10.993C12.4517 10.9943 12.467 10.9957 12.493 10.997C12.556 11 12.64 11 12.795 11H18L18.001 10.6V7H16.081C15.818 7 15.591 7 15.404 6.985C15.2013 6.97567 15.0027 6.92532 14.82 6.837C14.5379 6.69298 14.3086 6.46334 14.165 6.181C14.0765 5.99873 14.0258 5.8004 14.016 5.598C14 5.41 14 5.184 14 4.92ZM12.611 13C12.4001 13.0037 12.1894 12.9836 11.983 12.94C11.7588 12.8858 11.5445 12.7967 11.348 12.676C11.121 12.537 10.936 12.351 10.772 12.186L10.73 12.145L8.855 10.27C8.7737 10.1869 8.69034 10.1059 8.605 10.027C8.58868 10.0179 8.57118 10.0112 8.553 10.007L8.506 10.003C8.40569 10.0001 8.30534 9.99911 8.205 10H6V10.6C6 11.44 6 11.86 6.163 12.181C6.30685 12.4635 6.53651 12.6931 6.819 12.837C7.139 13 7.559 13 8.4 13H12.611ZM15 4.9V3.09C15.0373 3.10733 15.0733 3.12633 15.108 3.147C15.209 3.209 15.296 3.296 15.468 3.469L17.531 5.531C17.704 5.704 17.791 5.791 17.853 5.891C17.8743 5.927 17.8933 5.96333 17.91 6H16.1C15.812 6 15.626 6 15.484 5.988C15.4116 5.98651 15.3402 5.97194 15.273 5.945C15.1792 5.89711 15.1029 5.82082 15.055 5.727C15.0282 5.66015 15.0136 5.58901 15.012 5.517C15.0009 5.31153 14.9969 5.10574 15 4.9Z" fill="#2F6BFF"/>
<path d="M3 11.4C3 10.56 3 10.14 3.163 9.819C3.30685 9.53651 3.53651 9.30685 3.819 9.163C4.139 9 4.559 9 5.4 9H8.205C8.498 9 8.645 9 8.783 9.033C8.90633 9.063 9.022 9.111 9.13 9.177C9.251 9.251 9.355 9.355 9.562 9.562L11.438 11.438C11.645 11.645 11.749 11.749 11.87 11.823C11.9774 11.8889 12.0945 11.9375 12.217 11.967C12.355 12 12.502 12 12.795 12H18.6C19.44 12 19.86 12 20.181 12.164C20.4633 12.3076 20.693 12.5369 20.837 12.819C21 13.139 21 13.559 21 14.4V19.6C21 20.44 21 20.86 20.837 21.181C20.6931 21.4635 20.4635 21.6931 20.181 21.837C19.861 22 19.441 22 18.6 22H5.4C4.56 22 4.14 22 3.819 21.837C3.53651 21.6931 3.30685 21.4635 3.163 21.181C3 20.861 3 20.441 3 19.6V11.4Z" fill="#2F6BFF"/>
</svg>
