<svg width="24" height="24" viewBox="0 0 24 24" fill="none" xmlns="http://www.w3.org/2000/svg">
<path opacity="0.25" d="M12 21C16.9706 21 21 16.9706 21 12C21 7.02944 16.9706 3 12 3C7.02944 3 3 7.02944 3 12C3 16.9706 7.02944 21 12 21Z" fill="#151515"/>
<path d="M12.0004 5.3C12.0004 5.157 12.0004 5.08599 12.0464 5.04199C12.0924 4.99799 12.1624 5 12.3004 5.006C13.5026 5.05762 14.6712 5.41828 15.6934 6.05317C16.7156 6.68806 17.5569 7.57574 18.1361 8.63052C18.7152 9.68531 19.0127 10.8716 18.9997 12.0748C18.9868 13.2781 18.6639 14.4577 18.0622 15.4998C17.4605 16.5418 16.6003 17.4112 15.5647 18.024C14.5291 18.6367 13.353 18.9722 12.15 18.9979C10.9469 19.0237 9.75755 18.7389 8.69666 18.171C7.63576 17.6031 6.73918 16.7714 6.09343 15.756C6.01943 15.64 5.98243 15.581 5.99743 15.519C6.01243 15.457 6.07443 15.421 6.19743 15.35L11.8504 12.087C11.9234 12.044 11.9604 12.023 11.9804 11.988C12.0004 11.954 12.0004 11.911 12.0004 11.827V5.3Z" fill="#151515"/>
</svg>
