<svg width="24" height="24" viewBox="0 0 24 24" fill="none" xmlns="http://www.w3.org/2000/svg">
<path opacity="0.25" d="M3 10C3 8.114 3 7.172 3.586 6.586C4.172 6 5.114 6 7 6H17C18.886 6 19.828 6 20.414 6.586C21 7.172 21 8.114 21 10V14C21 15.886 21 16.828 20.414 17.414C19.828 18 18.886 18 17 18H7C5.114 18 4.172 18 3.586 17.414C3 16.828 3 15.886 3 14V10Z" fill="#2F6BFF"/>
<path d="M12 14C13.1046 14 14 13.1046 14 12C14 10.8954 13.1046 10 12 10C10.8954 10 10 10.8954 10 12C10 13.1046 10.8954 14 12 14Z" fill="#2F6BFF"/>
<path d="M7.5 8H5.5C5.22386 8 5 8.22386 5 8.5C5 8.77614 5.22386 9 5.5 9H7.5C7.77614 9 8 8.77614 8 8.5C8 8.22386 7.77614 8 7.5 8Z" fill="#2F6BFF"/>
<path d="M18.5 15H16.5C16.2239 15 16 15.2239 16 15.5C16 15.7761 16.2239 16 16.5 16H18.5C18.7761 16 19 15.7761 19 15.5C19 15.2239 18.7761 15 18.5 15Z" fill="#2F6BFF"/>
</svg>
