<svg width="20" height="20" viewBox="0 0 20 20" fill="none" xmlns="http://www.w3.org/2000/svg">
<path fill-rule="evenodd" clip-rule="evenodd" d="M10.0001 3.33329C8.83406 3.33308 7.68836 3.6387 6.67735 4.21965C5.66635 4.8006 4.8254 5.63656 4.23844 6.64409C3.65148 7.65162 3.33904 8.79547 3.33231 9.96149C3.32558 11.1275 3.6248 12.2749 4.20009 13.2891C4.58893 12.7838 5.08878 12.3746 5.661 12.0933C6.23321 11.8119 6.86246 11.666 7.50009 11.6666H12.5001C13.1377 11.666 13.767 11.8119 14.3392 12.0933C14.9114 12.3746 15.4112 12.7838 15.8001 13.2891C16.3754 12.2749 16.6746 11.1275 16.6679 9.96149C16.6611 8.79547 16.3487 7.65162 15.7617 6.64409C15.1748 5.63656 14.3338 4.8006 13.3228 4.21965C12.3118 3.6387 11.1661 3.33308 10.0001 3.33329ZM16.6193 15.0633C16.7237 14.9272 16.8237 14.7877 16.9193 14.645C17.8431 13.2722 18.3356 11.6546 18.3334 9.99996C18.3334 5.39746 14.6026 1.66663 10.0001 1.66663C5.39759 1.66663 1.66676 5.39746 1.66676 9.99996C1.66413 11.8306 2.26679 13.6107 3.38092 15.0633L3.37676 15.0783L3.67259 15.4225C4.45416 16.3362 5.42458 17.0696 6.51695 17.5722C7.60932 18.0747 8.79767 18.3344 10.0001 18.3333C10.1801 18.3333 10.359 18.3277 10.5368 18.3166C12.0404 18.2218 13.4898 17.7191 14.7293 16.8625C15.322 16.4535 15.8593 15.9695 16.3276 15.4225L16.6234 15.0783L16.6193 15.0633ZM10.0001 4.99996C9.33705 4.99996 8.70116 5.26335 8.23232 5.73219C7.76348 6.20103 7.50009 6.83692 7.50009 7.49996C7.50009 8.163 7.76348 8.79888 8.23232 9.26773C8.70116 9.73657 9.33705 9.99996 10.0001 9.99996C10.6631 9.99996 11.299 9.73657 11.7679 9.26773C12.2367 8.79888 12.5001 8.163 12.5001 7.49996C12.5001 6.83692 12.2367 6.20103 11.7679 5.73219C11.299 5.26335 10.6631 4.99996 10.0001 4.99996Z" fill="#333333"/>
</svg>
