<svg width="24" height="24" viewBox="0 0 24 24" fill="none" xmlns="http://www.w3.org/2000/svg">
<path opacity="0.25" d="M20 10H4C3.73478 10 3.48043 9.89464 3.29289 9.70711C3.10536 9.51957 3 9.26522 3 9C3 8.73478 3.10536 8.48043 3.29289 8.29289C3.48043 8.10536 3.73478 8 4 8H20C20.2652 8 20.5196 8.10536 20.7071 8.29289C20.8946 8.48043 21 8.73478 21 9C21 9.26522 20.8946 9.51957 20.7071 9.70711C20.5196 9.89464 20.2652 10 20 10ZM6.802 18.22L6.198 12.78C6.14384 12.2906 5.91107 11.8384 5.54425 11.51C5.17744 11.1816 4.70236 11 4.21 11H19.79C19.2976 11 18.8226 11.1816 18.4557 11.51C18.0889 11.8384 17.8562 12.2906 17.802 12.78L17.198 18.22C17.1438 18.7094 16.9111 19.1616 16.5443 19.49C16.1774 19.8184 15.7024 20 15.21 20H8.79C8.29764 20 7.82256 19.8184 7.45575 19.49C7.08893 19.1616 6.85616 18.7094 6.802 18.22Z" fill="#2F6BFF"/>
<path d="M8.5 3.5L6.5 6.5M15.5 3.5L17.5 6.5M10.5 16.5L9.5 13.5M13.5 16.5L14.5 13.5" stroke="#2F6BFF" stroke-linecap="round"/>
</svg>
