<svg width="13" height="14" viewBox="0 0 13 14" fill="none" xmlns="http://www.w3.org/2000/svg">
<path d="M6.00629 0.297188C6.00629 0.154188 6.00629 0.0831873 6.05229 0.0391873C6.09829 -0.00481271 6.16829 -0.00281248 6.30629 0.00318752C7.5085 0.0548096 8.67711 0.415472 9.69931 1.05036C10.7215 1.68525 11.5628 2.57293 12.1419 3.62771C12.7211 4.6825 13.0185 5.86877 13.0056 7.07202C12.9926 8.27527 12.6697 9.45486 12.0681 10.4969C11.4664 11.539 10.6062 12.4084 9.57057 13.0212C8.53496 13.6339 7.35887 13.9694 6.15582 13.9951C4.95278 14.0209 3.76341 13.7361 2.70252 13.1682C1.64162 12.6003 0.745034 11.7686 0.0992914 10.7532C0.0252914 10.6372 -0.0117083 10.5782 0.00329168 10.5162C0.0182917 10.4542 0.0802915 10.4182 0.203291 10.3472L5.85629 7.08419C5.92929 7.04119 5.96629 7.02019 5.98629 6.98519C6.00629 6.95119 6.00629 6.90819 6.00629 6.82419V0.297188Z" fill="#2F6BFF"/>
</svg>
