<svg width="40" height="40" viewBox="0 0 40 40" fill="none" xmlns="http://www.w3.org/2000/svg">
<path d="M15.1562 32.083C15.0539 32.4816 15 32.8996 15 33.3301C15 33.7627 15.0549 34.1826 15.1582 34.583H4.58301C4.25149 34.583 3.93364 34.4512 3.69922 34.2168C3.4649 33.9824 3.33301 33.6645 3.33301 33.333C3.33309 33.0016 3.46487 32.6836 3.69922 32.4492C3.93362 32.2149 4.25156 32.083 4.58301 32.083H15.1562Z" fill="#151515"/>
<path d="M35.416 32.083C35.7474 32.083 36.0654 32.215 36.2998 32.4492C36.5341 32.6836 36.6659 33.0016 36.666 33.333C36.666 33.6645 36.5342 33.9824 36.2998 34.2168C36.0654 34.4512 35.7475 34.583 35.416 34.583H24.8418C24.9451 34.1826 25 33.7627 25 33.3301C25 32.8996 24.9461 32.4816 24.8438 32.083H35.416Z" fill="#151515"/>
<path d="M21.25 28.4873C20.8505 28.3845 20.4316 28.3301 20 28.3301C19.5684 28.3301 19.1495 28.3845 18.75 28.4873V25H21.25V28.4873Z" fill="#151515"/>
<path opacity="0.25" fill-rule="evenodd" clip-rule="evenodd" d="M31.6663 16.3333V13.9483C31.6663 11.0967 31.6663 9.67001 30.768 8.74334C30.6847 8.65779 30.5975 8.57668 30.5063 8.50001C29.5097 7.66668 27.973 7.66668 24.903 7.66668H24.4663C23.1197 7.66668 22.448 7.66668 21.8197 7.50001C21.4771 7.40879 21.1453 7.28141 20.8297 7.12001C20.2613 6.82501 19.7847 6.38334 18.833 5.50001L18.1913 4.90334C17.9841 4.703 17.7684 4.51171 17.5447 4.33001C16.8083 3.76672 15.9254 3.42711 15.0013 3.35168C14.783 3.33334 14.5597 3.33334 14.108 3.33334C13.078 3.33334 12.563 3.33334 12.1347 3.40834C10.2463 3.74001 8.76967 5.11001 8.41467 6.86334C8.33301 7.26168 8.33301 7.74001 8.33301 8.69668V16.3333C8.33301 20.4183 8.33301 22.4617 9.69967 23.73C11.0663 25 13.2663 25 17.6663 25H22.333C26.733 25 28.933 25 30.2997 23.7317C31.6663 22.4617 31.6663 20.4183 31.6663 16.3333ZM22.4997 11.25C22.1682 11.25 21.8502 11.3817 21.6158 11.6161C21.3814 11.8505 21.2497 12.1685 21.2497 12.5C21.2497 12.8315 21.3814 13.1495 21.6158 13.3839C21.8502 13.6183 22.1682 13.75 22.4997 13.75H27.4997C27.8312 13.75 28.1491 13.6183 28.3836 13.3839C28.618 13.1495 28.7497 12.8315 28.7497 12.5C28.7497 12.1685 28.618 11.8505 28.3836 11.6161C28.1491 11.3817 27.8312 11.25 27.4997 11.25H22.4997Z" fill="#151515"/>
<path opacity="0.25" d="M20.0003 36.6667C21.8413 36.6667 23.3337 35.1743 23.3337 33.3333C23.3337 31.4924 21.8413 30 20.0003 30C18.1594 30 16.667 31.4924 16.667 33.3333C16.667 35.1743 18.1594 36.6667 20.0003 36.6667Z" fill="#151515"/>
</svg>
