<svg width="24" height="24" viewBox="0 0 24 24" fill="none" xmlns="http://www.w3.org/2000/svg">
<g clip-path="url(#clip0_11210_899)">
<path d="M16.7397 8.96777H22.9383C23.5239 8.96777 23.9986 9.47639 23.9986 10.1037V16.152C23.9986 18.4576 22.2539 20.3268 20.1016 20.3268H20.0831C17.9309 20.3271 16.1858 18.4583 16.1855 16.1526V9.56155C16.1855 9.48357 16.1998 9.40635 16.2277 9.3343C16.2555 9.26224 16.2963 9.19678 16.3478 9.14163C16.3992 9.08649 16.4604 9.04275 16.5276 9.01292C16.5949 8.98309 16.6669 8.96775 16.7397 8.96777Z" fill="#5059C9"/>
<path d="M20.9293 7.77222C22.3163 7.77222 23.4407 6.56773 23.4407 5.08191C23.4407 3.59609 22.3163 2.3916 20.9293 2.3916C19.5423 2.3916 18.418 3.59609 18.418 5.08191C18.418 6.56773 19.5423 7.77222 20.9293 7.77222Z" fill="#5059C9"/>
<path d="M13.1163 7.77198C15.1197 7.77198 16.7438 6.03217 16.7438 3.88599C16.7438 1.73982 15.1197 0 13.1163 0C11.1129 0 9.48877 1.73982 9.48877 3.88599C9.48877 6.03217 11.1129 7.77198 13.1163 7.77198Z" fill="#7B83EB"/>
<path d="M17.9533 8.96777H7.72149C7.14284 8.98314 6.68511 9.49758 6.69852 10.1175V17.0159C6.61771 20.7358 9.36493 23.8228 12.8373 23.9138C16.3097 23.8228 19.0569 20.7358 18.9762 17.0159V10.1175C18.9896 9.49758 18.5319 8.98314 17.9533 8.96777Z" fill="#7B83EB"/>
<path opacity="0.1" d="M13.3951 8.96777V18.6349C13.3937 18.8517 13.3326 19.0633 13.2194 19.243C13.1063 19.4228 12.946 19.5627 12.7589 19.6453C12.637 19.7005 12.506 19.7289 12.3738 19.7289H7.18914C7.11659 19.5316 7.04966 19.3343 6.99379 19.1311C6.79843 18.4451 6.69877 17.7319 6.69804 17.0147V10.1157C6.68464 9.49678 7.14162 8.98314 7.71933 8.96787L13.3951 8.96777Z" fill="black"/>
<path opacity="0.2" d="M12.8372 8.96777V19.2327C12.8372 19.3744 12.8107 19.5147 12.7592 19.6453C12.6821 19.8458 12.5515 20.0174 12.3837 20.1387C12.2159 20.2599 12.0184 20.3254 11.816 20.3268H7.45191C7.35705 20.1295 7.26772 19.9322 7.18963 19.7289C7.11461 19.5335 7.0494 19.334 6.99428 19.1311C6.79892 18.4451 6.69926 17.7319 6.69853 17.0147V10.1157C6.68512 9.49678 7.1421 8.98314 7.71982 8.96787L12.8372 8.96777Z" fill="black"/>
<path opacity="0.2" d="M12.8369 8.96777V18.0371C12.8326 18.6394 12.3779 19.1266 11.8156 19.1311H6.99379C6.79843 18.4451 6.69877 17.7319 6.69804 17.0147V10.1157C6.68464 9.49678 7.14162 8.98314 7.71933 8.96787L12.8369 8.96777Z" fill="black"/>
<path opacity="0.2" d="M12.2788 8.96777V18.0371C12.2745 18.6394 11.8198 19.1266 11.2575 19.1311H6.99379C6.79843 18.4451 6.69877 17.7319 6.69804 17.0147V10.1157C6.68464 9.49678 7.14162 8.98314 7.71933 8.96787L12.2788 8.96777Z" fill="black"/>
<path opacity="0.1" d="M13.3955 5.87677V7.75992C13.3006 7.76595 13.2113 7.77197 13.1164 7.77197C13.0215 7.77197 12.9322 7.76595 12.8373 7.75992C12.649 7.74653 12.4622 7.71453 12.2793 7.66432C11.7222 7.52297 11.2042 7.24236 10.7677 6.84544C10.3312 6.44852 9.98861 5.94656 9.76793 5.38061C9.69088 5.18781 9.63108 4.98762 9.58936 4.78271H12.3742C12.9373 4.78502 13.3933 5.27346 13.3955 5.87677Z" fill="black"/>
<path opacity="0.2" d="M12.8369 6.47482V7.76017C12.6485 7.74678 12.4617 7.71478 12.2789 7.66457C11.7217 7.52321 11.2038 7.24259 10.7673 6.84567C10.3308 6.44875 9.98825 5.9468 9.76758 5.38086H11.8156C12.3788 5.38307 12.8347 5.8716 12.8369 6.47482Z" fill="black"/>
<path opacity="0.2" d="M12.8369 6.47482V7.76017C12.6485 7.74678 12.4617 7.71478 12.2789 7.66457C11.7217 7.52321 11.2038 7.24259 10.7673 6.84567C10.3308 6.44875 9.98825 5.9468 9.76758 5.38086H11.8156C12.3788 5.38307 12.8347 5.8716 12.8369 6.47482Z" fill="black"/>
<path opacity="0.2" d="M12.279 6.47443V7.66419C11.7218 7.52282 11.2038 7.2422 10.7673 6.84526C10.3308 6.44832 9.98824 5.94634 9.76758 5.38037H11.2577C11.8208 5.38268 12.2768 5.87122 12.279 6.47443Z" fill="black"/>
<path d="M1.02444 5.38047H11.2561C11.8212 5.38047 12.2792 5.87112 12.2792 6.47634V17.4371C12.2792 18.0423 11.8212 18.533 11.2562 18.533H1.02444C0.459476 18.533 0.00146484 18.0423 0.00146484 17.4371V6.47644C0.00146484 5.87102 0.459476 5.38047 1.02444 5.38047Z" fill="url(#paint0_linear_11210_899)"/>
<path d="M8.83254 9.55244H6.78715V15.5189H5.48408V9.55244H3.44824V8.39502H8.83254V9.55244Z" fill="white"/>
</g>
<defs>
<linearGradient id="paint0_linear_11210_899" x1="213.29" y1="-80.2431" x2="1100.01" y2="1353.36" gradientUnits="userSpaceOnUse">
<stop stop-color="#5A62C3"/>
<stop offset="0.5" stop-color="#4D55BD"/>
<stop offset="1" stop-color="#3940AB"/>
</linearGradient>
<clipPath id="clip0_11210_899">
<rect width="24" height="24" fill="white"/>
</clipPath>
</defs>
</svg>
