<svg width="24" height="24" viewBox="0 0 24 24" fill="none" xmlns="http://www.w3.org/2000/svg">
<path opacity="0.25" d="M12 21C16.9706 21 21 16.9706 21 12C21 7.02944 16.9706 3 12 3C7.02944 3 3 7.02944 3 12C3 16.9706 7.02944 21 12 21Z" fill="#64748B"/>
<path d="M12 5.3C12 5.157 12 5.08599 12.046 5.04199C12.092 4.99799 12.162 5 12.3 5.006C13.5022 5.05762 14.6708 5.41828 15.693 6.05317C16.7152 6.68806 17.5565 7.57574 18.1356 8.63052C18.7148 9.68531 19.0122 10.8716 18.9993 12.0748C18.9864 13.2781 18.6635 14.4577 18.0618 15.4998C17.4601 16.5418 16.5999 17.4112 15.5643 18.024C14.5287 18.6367 13.3526 18.9722 12.1495 18.9979C10.9465 19.0237 9.75712 18.7389 8.69623 18.171C7.63534 17.6031 6.73875 16.7714 6.093 15.756C6.019 15.64 5.98201 15.581 5.99701 15.519C6.01201 15.457 6.074 15.421 6.197 15.35L11.85 12.087C11.923 12.044 11.96 12.023 11.98 11.988C12 11.954 12 11.911 12 11.827V5.3Z" fill="#64748B"/>
</svg>
