<svg width="15" height="18" viewBox="0 0 15 18" fill="none" xmlns="http://www.w3.org/2000/svg">
<path fill-rule="evenodd" clip-rule="evenodd" d="M0.138862 0.17619C0.204403 0.104954 0.2879 0.0524135 0.380719 0.0240019C0.473538 -0.00440974 0.572308 -0.0076608 0.666815 0.014585L12.0522 2.78469C12.1207 2.79975 12.1851 2.82961 12.2407 2.87214L14.5572 4.55189C14.6699 4.63417 14.7462 4.75674 14.77 4.89378C14.7937 5.03084 14.763 5.17169 14.6844 5.28671L6.71532 16.8757C6.65938 16.9579 6.58153 17.0231 6.49047 17.0639C6.39941 17.1046 6.29874 17.1194 6.1997 17.1066C6.10066 17.0938 6.00716 17.0539 5.92965 16.9913C5.85214 16.9286 5.79368 16.8458 5.7608 16.7521L0.029828 0.715191C-0.00184328 0.62398 -0.00843571 0.526019 0.0107326 0.431429C0.0299008 0.33684 0.0741343 0.248102 0.138862 0.17619ZM2.01635 3.06987L5.99513 14.2035L6.64933 8.43421L2.01635 3.06987ZM7.7148 8.61958L7.05008 14.4896L12.6778 6.30483L7.7148 8.61958ZM13.1856 4.88365L9.55786 6.57575L11.9891 4.01764L13.1856 4.88365ZM10.894 3.60697L2.04217 1.45477L7.2318 7.46078L10.894 3.60697Z" fill="#C4342B"/>
</svg>
