<svg width="168" height="168" viewBox="0 0 168 168" fill="none" xmlns="http://www.w3.org/2000/svg">
<g clip-path="url(#clip0_11901_7502)">
<path d="M168 0H0V168H168V0Z" fill="white"/>
<path d="M14.9545 10.5601C12.4944 10.5601 10.5 12.5544 10.5 15.0146H14.9545V10.5601Z" fill="#0A1020"/>
<path d="M19.4091 10.5601H14.9545V15.0146H19.4091V10.5601Z" fill="#0A1020"/>
<path d="M23.8636 10.5601H19.4091V15.0146H23.8636V10.5601Z" fill="#0A1020"/>
<path d="M28.3182 10.5601H23.8636V15.0146H28.3182V10.5601Z" fill="#0A1020"/>
<path d="M32.7727 10.5601H28.3182V15.0146H32.7727V10.5601Z" fill="#0A1020"/>
<path d="M37.2273 10.5601H32.7727V15.0146H37.2273V10.5601Z" fill="#0A1020"/>
<path d="M41.6818 15.0146C41.6818 12.5544 39.6875 10.5601 37.2273 10.5601V15.0146H41.6818Z" fill="#0A1020"/>
<path d="M55.0455 10.5601H50.5909V15.0146H55.0455V10.5601Z" fill="#0A1020"/>
<path d="M59.5 10.5601H55.0455V15.0146H59.5V10.5601Z" fill="#0A1020"/>
<path d="M63.9546 10.5601H59.5V15.0146H63.9546V10.5601Z" fill="#0A1020"/>
<path d="M90.6818 10.5601H86.2273V15.0146H90.6818V10.5601Z" fill="#0A1020"/>
<path d="M112.955 10.5601H108.5V15.0146H112.955V10.5601Z" fill="#0A1020"/>
<path d="M121.864 10.5601H117.409V15.0146H121.864V10.5601Z" fill="#0A1020"/>
<path d="M130.773 10.5601C128.313 10.5601 126.318 12.5544 126.318 15.0146H130.773V10.5601Z" fill="#0A1020"/>
<path d="M135.227 10.5601H130.773V15.0146H135.227V10.5601Z" fill="#0A1020"/>
<path d="M139.682 10.5601H135.227V15.0146H139.682V10.5601Z" fill="#0A1020"/>
<path d="M144.136 10.5601H139.682V15.0146H144.136V10.5601Z" fill="#0A1020"/>
<path d="M148.591 10.5601H144.136V15.0146H148.591V10.5601Z" fill="#0A1020"/>
<path d="M153.045 10.5601H148.591V15.0146H153.045V10.5601Z" fill="#0A1020"/>
<path d="M157.5 15.0146C157.5 12.5544 155.506 10.5601 153.045 10.5601V15.0146H157.5Z" fill="#0A1020"/>
<path d="M14.9545 15.0146H10.5V19.4692H14.9545V15.0146Z" fill="#0A1020"/>
<path d="M41.6818 15.0146H37.2273V19.4692H41.6818V15.0146Z" fill="#0A1020"/>
<path d="M50.5909 15.0146H46.1364V19.4692H50.5909V15.0146Z" fill="#0A1020"/>
<path d="M55.0455 15.0146H50.5909V19.4692H55.0455V15.0146Z" fill="#0A1020"/>
<path d="M72.8636 15.0146H68.4091V19.4692H72.8636V15.0146Z" fill="#0A1020"/>
<path d="M86.2273 15.0146H81.7727V19.4692H86.2273V15.0146Z" fill="#0A1020"/>
<path d="M99.5909 15.0146H95.1364V19.4692H99.5909V15.0146Z" fill="#0A1020"/>
<path d="M108.5 15.0146H104.045V19.4692H108.5V15.0146Z" fill="#0A1020"/>
<path d="M112.955 15.0146H108.5V19.4692H112.955V15.0146Z" fill="#0A1020"/>
<path d="M117.409 15.0146H112.955V19.4692H117.409V15.0146Z" fill="#0A1020"/>
<path d="M130.773 15.0146H126.318V19.4692H130.773V15.0146Z" fill="#0A1020"/>
<path d="M157.5 15.0146H153.045V19.4692H157.5V15.0146Z" fill="#0A1020"/>
<path d="M14.9545 19.4692H10.5V23.9237H14.9545V19.4692Z" fill="#0A1020"/>
<path d="M23.8636 19.4692C21.4035 19.4692 19.4091 21.4635 19.4091 23.9237H23.8636V19.4692Z" fill="#0A1020"/>
<path d="M28.3182 19.4692H23.8636V23.9237H28.3182V19.4692Z" fill="#0A1020"/>
<path d="M32.7727 23.9237C32.7727 21.4635 30.7784 19.4692 28.3182 19.4692V23.9237H32.7727Z" fill="#0A1020"/>
<path d="M41.6818 19.4692H37.2273V23.9237H41.6818V19.4692Z" fill="#0A1020"/>
<path d="M55.0455 19.4692H50.5909V23.9237H55.0455V19.4692Z" fill="#0A1020"/>
<path d="M59.5 19.4692H55.0455V23.9237H59.5V19.4692Z" fill="#0A1020"/>
<path d="M63.9546 19.4692H59.5V23.9237H63.9546V19.4692Z" fill="#0A1020"/>
<path d="M72.8636 19.4692H68.4091V23.9237H72.8636V19.4692Z" fill="#0A1020"/>
<path d="M81.7727 19.4692H77.3182V23.9237H81.7727V19.4692Z" fill="#0A1020"/>
<path d="M86.2273 19.4692H81.7727V23.9237H86.2273V19.4692Z" fill="#0A1020"/>
<path d="M99.5909 19.4692H95.1364V23.9237H99.5909V19.4692Z" fill="#0A1020"/>
<path d="M104.045 19.4692H99.5909V23.9237H104.045V19.4692Z" fill="#0A1020"/>
<path d="M108.5 19.4692H104.045V23.9237H108.5V19.4692Z" fill="#0A1020"/>
<path d="M121.864 19.4692H117.409V23.9237H121.864V19.4692Z" fill="#0A1020"/>
<path d="M130.773 19.4692H126.318V23.9237H130.773V19.4692Z" fill="#0A1020"/>
<path d="M139.682 19.4692C137.222 19.4692 135.227 21.4635 135.227 23.9237H139.682V19.4692Z" fill="#0A1020"/>
<path d="M144.136 19.4692H139.682V23.9237H144.136V19.4692Z" fill="#0A1020"/>
<path d="M148.591 23.9237C148.591 21.4635 146.597 19.4692 144.136 19.4692V23.9237H148.591Z" fill="#0A1020"/>
<path d="M157.5 19.4692H153.045V23.9237H157.5V19.4692Z" fill="#0A1020"/>
<path d="M14.9545 23.9237H10.5V28.3782H14.9545V23.9237Z" fill="#0A1020"/>
<path d="M23.8636 23.9237H19.4091V28.3782H23.8636V23.9237Z" fill="#0A1020"/>
<path d="M28.3182 23.9237H23.8636V28.3782H28.3182V23.9237Z" fill="#0A1020"/>
<path d="M32.7727 23.9237H28.3182V28.3782H32.7727V23.9237Z" fill="#0A1020"/>
<path d="M41.6818 23.9237H37.2273V28.3782H41.6818V23.9237Z" fill="#0A1020"/>
<path d="M50.5909 23.9237H46.1364V28.3782H50.5909V23.9237Z" fill="#0A1020"/>
<path d="M55.0455 23.9237H50.5909V28.3782H55.0455V23.9237Z" fill="#0A1020"/>
<path d="M59.5 23.9237H55.0455V28.3782H59.5V23.9237Z" fill="#0A1020"/>
<path d="M63.9546 23.9237H59.5V28.3782H63.9546V23.9237Z" fill="#0A1020"/>
<path d="M68.4091 23.9237H63.9546V28.3782H68.4091V23.9237Z" fill="#0A1020"/>
<path d="M72.8636 23.9237H68.4091V28.3782H72.8636V23.9237Z" fill="#0A1020"/>
<path d="M77.3182 23.9237H72.8636V28.3782H77.3182V23.9237Z" fill="#0A1020"/>
<path d="M81.7727 23.9237H77.3182V28.3782H81.7727V23.9237Z" fill="#0A1020"/>
<path d="M90.6818 23.9237H86.2273V28.3782H90.6818V23.9237Z" fill="#0A1020"/>
<path d="M95.1364 23.9237H90.6818V28.3782H95.1364L95.1364 23.9237Z" fill="#0A1020"/>
<path d="M108.5 23.9237H104.045V28.3782H108.5V23.9237Z" fill="#0A1020"/>
<path d="M117.409 23.9237H112.955V28.3782H117.409V23.9237Z" fill="#0A1020"/>
<path d="M130.773 23.9237H126.318V28.3782H130.773V23.9237Z" fill="#0A1020"/>
<path d="M139.682 23.9237H135.227V28.3782H139.682V23.9237Z" fill="#0A1020"/>
<path d="M144.136 23.9237H139.682V28.3782H144.136V23.9237Z" fill="#0A1020"/>
<path d="M148.591 23.9237H144.136V28.3782H148.591V23.9237Z" fill="#0A1020"/>
<path d="M157.5 23.9237H153.045V28.3782H157.5V23.9237Z" fill="#0A1020"/>
<path d="M14.9545 28.3782H10.5V32.8328H14.9545V28.3782Z" fill="#0A1020"/>
<path d="M23.8636 28.3782H19.4091C19.4091 30.8384 21.4035 32.8328 23.8636 32.8328V28.3782Z" fill="#0A1020"/>
<path d="M28.3182 28.3782H23.8636V32.8328H28.3182V28.3782Z" fill="#0A1020"/>
<path d="M32.7727 28.3782H28.3182V32.8328C30.7784 32.8328 32.7727 30.8384 32.7727 28.3782Z" fill="#0A1020"/>
<path d="M41.6818 28.3782H37.2273V32.8328H41.6818V28.3782Z" fill="#0A1020"/>
<path d="M68.4091 28.3782H63.9546V32.8328H68.4091V28.3782Z" fill="#0A1020"/>
<path d="M72.8636 28.3782H68.4091V32.8328H72.8636V28.3782Z" fill="#0A1020"/>
<path d="M77.3182 28.3782H72.8636V32.8328H77.3182V28.3782Z" fill="#0A1020"/>
<path d="M95.1364 28.3782H90.6818V32.8328H95.1364V28.3782Z" fill="#0A1020"/>
<path d="M99.5909 28.3782H95.1364V32.8328H99.5909V28.3782Z" fill="#0A1020"/>
<path d="M108.5 28.3782H104.045V32.8328H108.5V28.3782Z" fill="#0A1020"/>
<path d="M117.409 28.3782H112.955V32.8328H117.409V28.3782Z" fill="#0A1020"/>
<path d="M130.773 28.3782H126.318V32.8328H130.773V28.3782Z" fill="#0A1020"/>
<path d="M139.682 28.3782H135.227C135.227 30.8384 137.222 32.8328 139.682 32.8328V28.3782Z" fill="#0A1020"/>
<path d="M144.136 28.3782H139.682V32.8328H144.136V28.3782Z" fill="#0A1020"/>
<path d="M148.591 28.3782H144.136V32.8328C146.597 32.8328 148.591 30.8384 148.591 28.3782Z" fill="#0A1020"/>
<path d="M157.5 28.3782H153.045V32.8328H157.5V28.3782Z" fill="#0A1020"/>
<path d="M14.9545 32.8328H10.5V37.2873H14.9545V32.8328Z" fill="#0A1020"/>
<path d="M41.6818 32.8328H37.2273V37.2873H41.6818V32.8328Z" fill="#0A1020"/>
<path d="M50.5909 32.8328H46.1364V37.2873H50.5909V32.8328Z" fill="#0A1020"/>
<path d="M55.0455 32.8328H50.5909V37.2873H55.0455V32.8328Z" fill="#0A1020"/>
<path d="M63.9546 32.8328H59.5V37.2873H63.9546V32.8328Z" fill="#0A1020"/>
<path d="M72.8636 32.8328H68.4091V37.2873H72.8636V32.8328Z" fill="#0A1020"/>
<path d="M77.3182 32.8328H72.8636V37.2873H77.3182V32.8328Z" fill="#0A1020"/>
<path d="M81.7727 32.8328H77.3182V37.2873H81.7727V32.8328Z" fill="#0A1020"/>
<path d="M86.2273 32.8328H81.7727V37.2873H86.2273V32.8328Z" fill="#0A1020"/>
<path d="M90.6818 32.8328H86.2273V37.2873H90.6818V32.8328Z" fill="#0A1020"/>
<path d="M95.1364 32.8328H90.6818V37.2873H95.1364V32.8328Z" fill="#0A1020"/>
<path d="M104.045 32.8328H99.5909V37.2873H104.045V32.8328Z" fill="#0A1020"/>
<path d="M108.5 32.8328H104.045V37.2873H108.5V32.8328Z" fill="#0A1020"/>
<path d="M112.955 32.8328H108.5V37.2873H112.955V32.8328Z" fill="#0A1020"/>
<path d="M121.864 32.8328H117.409V37.2873H121.864V32.8328Z" fill="#0A1020"/>
<path d="M130.773 32.8328H126.318V37.2873H130.773V32.8328Z" fill="#0A1020"/>
<path d="M157.5 32.8328H153.045V37.2873H157.5V32.8328Z" fill="#0A1020"/>
<path d="M14.9545 37.2873H10.5C10.5 39.7475 12.4944 41.7419 14.9545 41.7419V37.2873Z" fill="#0A1020"/>
<path d="M19.4091 37.2873H14.9545V41.7419H19.4091V37.2873Z" fill="#0A1020"/>
<path d="M23.8636 37.2873H19.4091V41.7419H23.8636V37.2873Z" fill="#0A1020"/>
<path d="M28.3182 37.2873H23.8636V41.7419H28.3182V37.2873Z" fill="#0A1020"/>
<path d="M32.7727 37.2873H28.3182V41.7419H32.7727V37.2873Z" fill="#0A1020"/>
<path d="M37.2273 37.2873H32.7727V41.7419H37.2273V37.2873Z" fill="#0A1020"/>
<path d="M41.6818 37.2873H37.2273V41.7419C39.6875 41.7419 41.6818 39.7475 41.6818 37.2873Z" fill="#0A1020"/>
<path d="M50.5909 37.2873H46.1364V41.7419H50.5909V37.2873Z" fill="#0A1020"/>
<path d="M59.5 37.2873H55.0455V41.7419H59.5V37.2873Z" fill="#0A1020"/>
<path d="M68.4091 37.2873H63.9546V41.7419H68.4091V37.2873Z" fill="#0A1020"/>
<path d="M77.3182 37.2873H72.8636V41.7419H77.3182V37.2873Z" fill="#0A1020"/>
<path d="M86.2273 37.2873H81.7727V41.7419H86.2273V37.2873Z" fill="#0A1020"/>
<path d="M95.1364 37.2873H90.6818V41.7419H95.1364V37.2873Z" fill="#0A1020"/>
<path d="M104.045 37.2873H99.5909V41.7419H104.045V37.2873Z" fill="#0A1020"/>
<path d="M112.955 37.2873H108.5V41.7419H112.955V37.2873Z" fill="#0A1020"/>
<path d="M121.864 37.2873H117.409V41.7419H121.864V37.2873Z" fill="#0A1020"/>
<path d="M130.773 37.2873H126.318C126.318 39.7475 128.313 41.7419 130.773 41.7419V37.2873Z" fill="#0A1020"/>
<path d="M135.227 37.2873H130.773V41.7419H135.227V37.2873Z" fill="#0A1020"/>
<path d="M139.682 37.2873H135.227V41.7419H139.682V37.2873Z" fill="#0A1020"/>
<path d="M144.136 37.2873H139.682V41.7419H144.136V37.2873Z" fill="#0A1020"/>
<path d="M148.591 37.2873H144.136V41.7419H148.591V37.2873Z" fill="#0A1020"/>
<path d="M153.045 37.2873H148.591V41.7419H153.045V37.2873Z" fill="#0A1020"/>
<path d="M157.5 37.2873H153.045V41.7419C155.506 41.7419 157.5 39.7475 157.5 37.2873Z" fill="#0A1020"/>
<path d="M50.5909 41.7419H46.1364V46.1964H50.5909V41.7419Z" fill="#0A1020"/>
<path d="M59.5 41.7419H55.0455V46.1964H59.5V41.7419Z" fill="#0A1020"/>
<path d="M63.9546 41.7419H59.5V46.1964H63.9546V41.7419Z" fill="#0A1020"/>
<path d="M68.4091 41.7419H63.9546V46.1964H68.4091V41.7419Z" fill="#0A1020"/>
<path d="M86.2273 41.7419H81.7727V46.1964H86.2273V41.7419Z" fill="#0A1020"/>
<path d="M95.1364 41.7419H90.6818V46.1964H95.1364V41.7419Z" fill="#0A1020"/>
<path d="M108.5 41.7419H104.045V46.1964H108.5V41.7419Z" fill="#0A1020"/>
<path d="M117.409 41.7419H112.955V46.1964H117.409V41.7419Z" fill="#0A1020"/>
<path d="M14.9545 46.1964H10.5V50.651H14.9545V46.1964Z" fill="#0A1020"/>
<path d="M23.8636 46.1964H19.4091V50.651H23.8636V46.1964Z" fill="#0A1020"/>
<path d="M28.3182 46.1964H23.8636V50.651H28.3182V46.1964Z" fill="#0A1020"/>
<path d="M37.2273 46.1964H32.7727V50.651H37.2273V46.1964Z" fill="#0A1020"/>
<path d="M41.6818 46.1964H37.2273V50.651H41.6818V46.1964Z" fill="#0A1020"/>
<path d="M46.1364 46.1964H41.6818V50.651H46.1364V46.1964Z" fill="#0A1020"/>
<path d="M50.5909 46.1964H46.1364V50.651H50.5909V46.1964Z" fill="#0A1020"/>
<path d="M55.0455 46.1964H50.5909V50.651H55.0455V46.1964Z" fill="#0A1020"/>
<path d="M68.4091 46.1964H63.9546V50.651H68.4091V46.1964Z" fill="#0A1020"/>
<path d="M90.6818 46.1964H86.2273V50.651H90.6818V46.1964Z" fill="#0A1020"/>
<path d="M95.1364 46.1964H90.6818V50.651H95.1364V46.1964Z" fill="#0A1020"/>
<path d="M104.045 46.1964H99.5909V50.651H104.045V46.1964Z" fill="#0A1020"/>
<path d="M117.409 46.1964H112.955V50.651H117.409V46.1964Z" fill="#0A1020"/>
<path d="M126.318 46.1964H121.864V50.651H126.318V46.1964Z" fill="#0A1020"/>
<path d="M130.773 46.1964H126.318V50.651H130.773V46.1964Z" fill="#0A1020"/>
<path d="M135.227 46.1964H130.773V50.651H135.227V46.1964Z" fill="#0A1020"/>
<path d="M144.136 46.1964H139.682V50.651H144.136V46.1964Z" fill="#0A1020"/>
<path d="M153.045 46.1964H148.591V50.651H153.045V46.1964Z" fill="#0A1020"/>
<path d="M19.4091 50.651H14.9545V55.1055H19.4091V50.651Z" fill="#0A1020"/>
<path d="M28.3182 50.651H23.8636V55.1055H28.3182V50.651Z" fill="#0A1020"/>
<path d="M32.7727 50.651H28.3182V55.1055H32.7727V50.651Z" fill="#0A1020"/>
<path d="M46.1364 50.651H41.6818V55.1055H46.1364V50.651Z" fill="#0A1020"/>
<path d="M81.7727 50.651H77.3182V55.1055H81.7727V50.651Z" fill="#0A1020"/>
<path d="M86.2273 50.651H81.7727V55.1055H86.2273V50.651Z" fill="#0A1020"/>
<path d="M99.5909 50.651H95.1364L95.1364 55.1055H99.5909V50.651Z" fill="#0A1020"/>
<path d="M104.045 50.651H99.5909V55.1055H104.045V50.651Z" fill="#0A1020"/>
<path d="M108.5 50.651H104.045V55.1055H108.5V50.651Z" fill="#0A1020"/>
<path d="M112.955 50.651H108.5V55.1055H112.955V50.651Z" fill="#0A1020"/>
<path d="M117.409 50.651H112.955V55.1055H117.409V50.651Z" fill="#0A1020"/>
<path d="M126.318 50.651H121.864V55.1055H126.318V50.651Z" fill="#0A1020"/>
<path d="M130.773 50.651H126.318V55.1055H130.773V50.651Z" fill="#0A1020"/>
<path d="M135.227 50.651H130.773V55.1055H135.227V50.651Z" fill="#0A1020"/>
<path d="M157.5 50.651H153.045V55.1055H157.5V50.651Z" fill="#0A1020"/>
<path d="M19.4091 55.1055H14.9545V59.5601H19.4091V55.1055Z" fill="#0A1020"/>
<path d="M32.7727 55.1055H28.3182V59.5601H32.7727V55.1055Z" fill="#0A1020"/>
<path d="M41.6818 55.1055H37.2273V59.5601H41.6818V55.1055Z" fill="#0A1020"/>
<path d="M46.1364 55.1055H41.6818V59.5601H46.1364V55.1055Z" fill="#0A1020"/>
<path d="M55.0455 55.1055H50.5909V59.5601H55.0455V55.1055Z" fill="#0A1020"/>
<path d="M63.9546 55.1055H59.5V59.5601H63.9546V55.1055Z" fill="#0A1020"/>
<path d="M81.7727 55.1055H77.3182V59.5601H81.7727V55.1055Z" fill="#0A1020"/>
<path d="M95.1364 55.1055H90.6818V59.5601H95.1364L95.1364 55.1055Z" fill="#0A1020"/>
<path d="M104.045 55.1055H99.5909V59.5601H104.045V55.1055Z" fill="#0A1020"/>
<path d="M117.409 55.1055H112.955V59.5601H117.409V55.1055Z" fill="#0A1020"/>
<path d="M130.773 55.1055H126.318V59.5601H130.773V55.1055Z" fill="#0A1020"/>
<path d="M148.591 55.1055H144.136V59.5601H148.591V55.1055Z" fill="#0A1020"/>
<path d="M14.9545 59.5601H10.5V64.0146H14.9545V59.5601Z" fill="#0A1020"/>
<path d="M37.2273 59.5601H32.7727V64.0146H37.2273V59.5601Z" fill="#0A1020"/>
<path d="M50.5909 59.5601H46.1364V64.0146H50.5909V59.5601Z" fill="#0A1020"/>
<path d="M59.5 59.5601H55.0455V64.0146H59.5V59.5601Z" fill="#0A1020"/>
<path d="M63.9546 59.5601H59.5V64.0146H63.9546V59.5601Z" fill="#0A1020"/>
<path d="M68.4091 59.5601H63.9546V64.0146H68.4091V59.5601Z" fill="#0A1020"/>
<path d="M77.3182 59.5601H72.8636V64.0146H77.3182V59.5601Z" fill="#0A1020"/>
<path d="M90.6818 59.5601H86.2273V64.0146H90.6818V59.5601Z" fill="#0A1020"/>
<path d="M108.5 59.5601H104.045V64.0146H108.5V59.5601Z" fill="#0A1020"/>
<path d="M126.318 59.5601H121.864V64.0146H126.318V59.5601Z" fill="#0A1020"/>
<path d="M130.773 59.5601H126.318V64.0146H130.773V59.5601Z" fill="#0A1020"/>
<path d="M135.227 59.5601H130.773V64.0146H135.227V59.5601Z" fill="#0A1020"/>
<path d="M144.136 59.5601H139.682V64.0146H144.136V59.5601Z" fill="#0A1020"/>
<path d="M148.591 59.5601H144.136V64.0146H148.591V59.5601Z" fill="#0A1020"/>
<path d="M153.045 59.5601H148.591V64.0146H153.045V59.5601Z" fill="#0A1020"/>
<path d="M14.9545 64.0146H10.5V68.4692H14.9545V64.0146Z" fill="#0A1020"/>
<path d="M19.4091 64.0146H14.9545V68.4692H19.4091V64.0146Z" fill="#0A1020"/>
<path d="M28.3182 64.0146H23.8636V68.4692H28.3182V64.0146Z" fill="#0A1020"/>
<path d="M37.2273 64.0146H32.7727V68.4692H37.2273V64.0146Z" fill="#0A1020"/>
<path d="M41.6818 64.0146H37.2273V68.4692H41.6818V64.0146Z" fill="#0A1020"/>
<path d="M46.1364 64.0146H41.6818V68.4692H46.1364V64.0146Z" fill="#0A1020"/>
<path d="M55.0455 64.0146H50.5909V68.4692H55.0455V64.0146Z" fill="#0A1020"/>
<path d="M63.9546 64.0146H59.5V68.4692H63.9546V64.0146Z" fill="#0A1020"/>
<path d="M77.3182 64.0146H72.8636V68.4692H77.3182V64.0146Z" fill="#0A1020"/>
<path d="M81.7727 64.0146H77.3182V68.4692H81.7727V64.0146Z" fill="#0A1020"/>
<path d="M99.5909 64.0146H95.1364V68.4692H99.5909V64.0146Z" fill="#0A1020"/>
<path d="M104.045 64.0146H99.5909V68.4692H104.045V64.0146Z" fill="#0A1020"/>
<path d="M112.955 64.0146H108.5V68.4692H112.955V64.0146Z" fill="#0A1020"/>
<path d="M121.864 64.0146H117.409V68.4692H121.864V64.0146Z" fill="#0A1020"/>
<path d="M130.773 64.0146H126.318V68.4692H130.773V64.0146Z" fill="#0A1020"/>
<path d="M144.136 64.0146H139.682V68.4692H144.136V64.0146Z" fill="#0A1020"/>
<path d="M148.591 64.0146H144.136V68.4692H148.591V64.0146Z" fill="#0A1020"/>
<path d="M14.9545 68.4692H10.5V72.9237H14.9545V68.4692Z" fill="#0A1020"/>
<path d="M19.4091 68.4692H14.9545V72.9237H19.4091V68.4692Z" fill="#0A1020"/>
<path d="M23.8636 68.4692H19.4091V72.9237H23.8636V68.4692Z" fill="#0A1020"/>
<path d="M28.3182 68.4692H23.8636V72.9237H28.3182V68.4692Z" fill="#0A1020"/>
<path d="M32.7727 68.4692H28.3182V72.9237H32.7727V68.4692Z" fill="#0A1020"/>
<path d="M37.2273 68.4692H32.7727V72.9237H37.2273V68.4692Z" fill="#0A1020"/>
<path d="M46.1364 68.4692H41.6818V72.9237H46.1364V68.4692Z" fill="#0A1020"/>
<path d="M50.5909 68.4692H46.1364V72.9237H50.5909V68.4692Z" fill="#0A1020"/>
<path d="M55.0455 68.4692H50.5909V72.9237H55.0455V68.4692Z" fill="#0A1020"/>
<path d="M59.5 68.4692H55.0455V72.9237H59.5V68.4692Z" fill="#0A1020"/>
<path d="M77.3182 68.4692H72.8636V72.9237H77.3182V68.4692Z" fill="#0A1020"/>
<path d="M90.6818 68.4692H86.2273V72.9237H90.6818V68.4692Z" fill="#0A1020"/>
<path d="M95.1364 68.4692H90.6818V72.9237H95.1364L95.1364 68.4692Z" fill="#0A1020"/>
<path d="M99.5909 68.4692H95.1364L95.1364 72.9237H99.5909V68.4692Z" fill="#0A1020"/>
<path d="M130.773 68.4692H126.318V72.9237H130.773V68.4692Z" fill="#0A1020"/>
<path d="M135.227 68.4692H130.773V72.9237H135.227V68.4692Z" fill="#0A1020"/>
<path d="M144.136 68.4692H139.682V72.9237H144.136V68.4692Z" fill="#0A1020"/>
<path d="M148.591 68.4692H144.136V72.9237H148.591V68.4692Z" fill="#0A1020"/>
<path d="M14.9545 72.9237H10.5V77.3782H14.9545V72.9237Z" fill="#0A1020"/>
<path d="M23.8636 72.9237H19.4091V77.3782H23.8636V72.9237Z" fill="#0A1020"/>
<path d="M28.3182 72.9237H23.8636V77.3782H28.3182V72.9237Z" fill="#0A1020"/>
<path d="M32.7727 72.9237H28.3182V77.3782H32.7727V72.9237Z" fill="#0A1020"/>
<path d="M41.6818 72.9237H37.2273V77.3782H41.6818V72.9237Z" fill="#0A1020"/>
<path d="M46.1364 72.9237H41.6818V77.3782H46.1364V72.9237Z" fill="#0A1020"/>
<path d="M50.5909 72.9237H46.1364V77.3782H50.5909V72.9237Z" fill="#0A1020"/>
<path d="M68.4091 72.9237H63.9546V77.3782H68.4091V72.9237Z" fill="#0A1020"/>
<path d="M72.8636 72.9237H68.4091V77.3782H72.8636V72.9237Z" fill="#0A1020"/>
<path d="M77.3182 72.9237H72.8636V77.3782H77.3182V72.9237Z" fill="#0A1020"/>
<path d="M81.7727 72.9237H77.3182V77.3782H81.7727V72.9237Z" fill="#0A1020"/>
<path d="M90.6818 72.9237H86.2273V77.3782H90.6818V72.9237Z" fill="#0A1020"/>
<path d="M121.864 72.9237H117.409V77.3782H121.864V72.9237Z" fill="#0A1020"/>
<path d="M126.318 72.9237H121.864V77.3782H126.318V72.9237Z" fill="#0A1020"/>
<path d="M139.682 72.9237H135.227V77.3782H139.682V72.9237Z" fill="#0A1020"/>
<path d="M23.8636 77.3782H19.4091V81.8328H23.8636V77.3782Z" fill="#0A1020"/>
<path d="M32.7727 77.3782H28.3182V81.8328H32.7727V77.3782Z" fill="#0A1020"/>
<path d="M37.2273 77.3782H32.7727V81.8328H37.2273V77.3782Z" fill="#0A1020"/>
<path d="M46.1364 77.3782H41.6818V81.8328H46.1364V77.3782Z" fill="#0A1020"/>
<path d="M50.5909 77.3782H46.1364V81.8328H50.5909V77.3782Z" fill="#0A1020"/>
<path d="M55.0455 77.3782H50.5909V81.8328H55.0455V77.3782Z" fill="#0A1020"/>
<path d="M59.5 77.3782H55.0455V81.8328H59.5V77.3782Z" fill="#0A1020"/>
<path d="M68.4091 77.3782H63.9546V81.8328H68.4091V77.3782Z" fill="#0A1020"/>
<path d="M72.8636 77.3782H68.4091V81.8328H72.8636V77.3782Z" fill="#0A1020"/>
<path d="M86.2273 77.3782H81.7727V81.8328H86.2273V77.3782Z" fill="#0A1020"/>
<path d="M95.1364 77.3782H90.6818V81.8328H95.1364V77.3782Z" fill="#0A1020"/>
<path d="M121.864 77.3782H117.409V81.8328H121.864V77.3782Z" fill="#0A1020"/>
<path d="M126.318 77.3782H121.864V81.8328H126.318V77.3782Z" fill="#0A1020"/>
<path d="M144.136 77.3782H139.682V81.8328H144.136V77.3782Z" fill="#0A1020"/>
<path d="M148.591 77.3782H144.136V81.8328H148.591V77.3782Z" fill="#0A1020"/>
<path d="M19.4091 81.8328H14.9545V86.2873H19.4091V81.8328Z" fill="#0A1020"/>
<path d="M23.8636 81.8328H19.4091V86.2873H23.8636V81.8328Z" fill="#0A1020"/>
<path d="M37.2273 81.8328H32.7727V86.2873H37.2273V81.8328Z" fill="#0A1020"/>
<path d="M41.6818 81.8328H37.2273V86.2873H41.6818V81.8328Z" fill="#0A1020"/>
<path d="M46.1364 81.8328H41.6818V86.2873H46.1364V81.8328Z" fill="#0A1020"/>
<path d="M63.9546 81.8328H59.5V86.2873H63.9546V81.8328Z" fill="#0A1020"/>
<path d="M68.4091 81.8328H63.9546V86.2873H68.4091V81.8328Z" fill="#0A1020"/>
<path d="M72.8636 81.8328H68.4091V86.2873H72.8636V81.8328Z" fill="#0A1020"/>
<path d="M77.3182 81.8328H72.8636V86.2873H77.3182V81.8328Z" fill="#0A1020"/>
<path d="M81.7727 81.8328H77.3182V86.2873H81.7727V81.8328Z" fill="#0A1020"/>
<path d="M86.2273 81.8328H81.7727V86.2873H86.2273V81.8328Z" fill="#0A1020"/>
<path d="M99.5909 81.8328H95.1364L95.1364 86.2873H99.5909V81.8328Z" fill="#0A1020"/>
<path d="M104.045 81.8328H99.5909V86.2873H104.045V81.8328Z" fill="#0A1020"/>
<path d="M108.5 81.8328H104.045V86.2873H108.5V81.8328Z" fill="#0A1020"/>
<path d="M117.409 81.8328H112.955V86.2873H117.409V81.8328Z" fill="#0A1020"/>
<path d="M126.318 81.8328H121.864V86.2873H126.318V81.8328Z" fill="#0A1020"/>
<path d="M139.682 81.8328H135.227V86.2873H139.682V81.8328Z" fill="#0A1020"/>
<path d="M148.591 81.8328H144.136V86.2873H148.591V81.8328Z" fill="#0A1020"/>
<path d="M153.045 81.8328H148.591V86.2873H153.045V81.8328Z" fill="#0A1020"/>
<path d="M157.5 81.8328H153.045V86.2873H157.5V81.8328Z" fill="#0A1020"/>
<path d="M14.9545 86.2873H10.5V90.7419H14.9545V86.2873Z" fill="#0A1020"/>
<path d="M28.3182 86.2873H23.8636V90.7419H28.3182V86.2873Z" fill="#0A1020"/>
<path d="M46.1364 86.2873H41.6818V90.7419H46.1364V86.2873Z" fill="#0A1020"/>
<path d="M55.0455 86.2873H50.5909V90.7419H55.0455V86.2873Z" fill="#0A1020"/>
<path d="M77.3182 86.2873H72.8636V90.7419H77.3182V86.2873Z" fill="#0A1020"/>
<path d="M95.1364 86.2873H90.6818V90.7419H95.1364L95.1364 86.2873Z" fill="#0A1020"/>
<path d="M104.045 86.2873H99.5909V90.7419H104.045V86.2873Z" fill="#0A1020"/>
<path d="M112.955 86.2873H108.5V90.7419H112.955V86.2873Z" fill="#0A1020"/>
<path d="M117.409 86.2873H112.955V90.7419H117.409V86.2873Z" fill="#0A1020"/>
<path d="M130.773 86.2873H126.318V90.7419H130.773V86.2873Z" fill="#0A1020"/>
<path d="M139.682 86.2873H135.227V90.7419H139.682V86.2873Z" fill="#0A1020"/>
<path d="M153.045 86.2873H148.591V90.7419H153.045V86.2873Z" fill="#0A1020"/>
<path d="M14.9545 90.7419H10.5V95.1964H14.9545V90.7419Z" fill="#0A1020"/>
<path d="M19.4091 90.7419H14.9545V95.1964H19.4091V90.7419Z" fill="#0A1020"/>
<path d="M23.8636 90.7419H19.4091V95.1964H23.8636V90.7419Z" fill="#0A1020"/>
<path d="M28.3182 90.7419H23.8636V95.1964H28.3182V90.7419Z" fill="#0A1020"/>
<path d="M32.7727 90.7419H28.3182V95.1964H32.7727V90.7419Z" fill="#0A1020"/>
<path d="M37.2273 90.7419H32.7727V95.1964H37.2273V90.7419Z" fill="#0A1020"/>
<path d="M41.6818 90.7419H37.2273V95.1964H41.6818V90.7419Z" fill="#0A1020"/>
<path d="M59.5 90.7419H55.0455V95.1964H59.5V90.7419Z" fill="#0A1020"/>
<path d="M63.9546 90.7419H59.5V95.1964H63.9546V90.7419Z" fill="#0A1020"/>
<path d="M68.4091 90.7419H63.9546V95.1964H68.4091V90.7419Z" fill="#0A1020"/>
<path d="M72.8636 90.7419H68.4091V95.1964H72.8636V90.7419Z" fill="#0A1020"/>
<path d="M77.3182 90.7419H72.8636V95.1964H77.3182V90.7419Z" fill="#0A1020"/>
<path d="M81.7727 90.7419H77.3182V95.1964H81.7727V90.7419Z" fill="#0A1020"/>
<path d="M86.2273 90.7419H81.7727V95.1964H86.2273V90.7419Z" fill="#0A1020"/>
<path d="M90.6818 90.7419H86.2273V95.1964H90.6818V90.7419Z" fill="#0A1020"/>
<path d="M95.1364 90.7419H90.6818V95.1964H95.1364V90.7419Z" fill="#0A1020"/>
<path d="M99.5909 90.7419H95.1364V95.1964H99.5909V90.7419Z" fill="#0A1020"/>
<path d="M104.045 90.7419H99.5909V95.1964H104.045V90.7419Z" fill="#0A1020"/>
<path d="M108.5 90.7419H104.045V95.1964H108.5V90.7419Z" fill="#0A1020"/>
<path d="M112.955 90.7419H108.5V95.1964H112.955V90.7419Z" fill="#0A1020"/>
<path d="M121.864 90.7419H117.409V95.1964H121.864V90.7419Z" fill="#0A1020"/>
<path d="M148.591 90.7419H144.136V95.1964H148.591V90.7419Z" fill="#0A1020"/>
<path d="M157.5 90.7419H153.045V95.1964H157.5V90.7419Z" fill="#0A1020"/>
<path d="M14.9545 95.1964H10.5V99.651H14.9545V95.1964Z" fill="#0A1020"/>
<path d="M23.8636 95.1964H19.4091V99.651H23.8636V95.1964Z" fill="#0A1020"/>
<path d="M28.3182 95.1964H23.8636V99.651H28.3182V95.1964Z" fill="#0A1020"/>
<path d="M32.7727 95.1964H28.3182V99.651H32.7727V95.1964Z" fill="#0A1020"/>
<path d="M37.2273 95.1964H32.7727V99.651H37.2273V95.1964Z" fill="#0A1020"/>
<path d="M59.5 95.1964H55.0455V99.651H59.5V95.1964Z" fill="#0A1020"/>
<path d="M77.3182 95.1964H72.8636V99.651H77.3182V95.1964Z" fill="#0A1020"/>
<path d="M90.6818 95.1964H86.2273V99.651H90.6818V95.1964Z" fill="#0A1020"/>
<path d="M104.045 95.1964H99.5909V99.651H104.045V95.1964Z" fill="#0A1020"/>
<path d="M108.5 95.1964H104.045V99.651H108.5V95.1964Z" fill="#0A1020"/>
<path d="M112.955 95.1964H108.5V99.651H112.955V95.1964Z" fill="#0A1020"/>
<path d="M117.409 95.1964H112.955V99.651H117.409V95.1964Z" fill="#0A1020"/>
<path d="M126.318 95.1964L121.864 95.1964V99.651H126.318V95.1964Z" fill="#0A1020"/>
<path d="M135.227 95.1964H130.773V99.651H135.227V95.1964Z" fill="#0A1020"/>
<path d="M139.682 95.1964H135.227V99.651H139.682V95.1964Z" fill="#0A1020"/>
<path d="M144.136 95.1964L139.682 95.1964V99.651H144.136V95.1964Z" fill="#0A1020"/>
<path d="M148.591 95.1964H144.136V99.651H148.591V95.1964Z" fill="#0A1020"/>
<path d="M153.045 95.1964H148.591V99.651H153.045V95.1964Z" fill="#0A1020"/>
<path d="M157.5 95.1964H153.045V99.651H157.5V95.1964Z" fill="#0A1020"/>
<path d="M19.4091 99.651H14.9545V104.106H19.4091V99.651Z" fill="#0A1020"/>
<path d="M23.8636 99.651H19.4091V104.106H23.8636V99.651Z" fill="#0A1020"/>
<path d="M28.3182 99.651H23.8636V104.106H28.3182V99.651Z" fill="#0A1020"/>
<path d="M32.7727 99.651H28.3182V104.106H32.7727V99.651Z" fill="#0A1020"/>
<path d="M41.6818 99.651H37.2273V104.106H41.6818V99.651Z" fill="#0A1020"/>
<path d="M50.5909 99.651H46.1364V104.106H50.5909V99.651Z" fill="#0A1020"/>
<path d="M68.4091 99.651H63.9546V104.106H68.4091V99.651Z" fill="#0A1020"/>
<path d="M72.8636 99.651H68.4091V104.106H72.8636V99.651Z" fill="#0A1020"/>
<path d="M81.7727 99.651H77.3182V104.106H81.7727V99.651Z" fill="#0A1020"/>
<path d="M95.1364 99.651H90.6818V104.106H95.1364V99.651Z" fill="#0A1020"/>
<path d="M104.045 99.651H99.5909V104.106H104.045V99.651Z" fill="#0A1020"/>
<path d="M117.409 99.651H112.955V104.106H117.409V99.651Z" fill="#0A1020"/>
<path d="M126.318 99.651H121.864V104.106H126.318V99.651Z" fill="#0A1020"/>
<path d="M130.773 99.651H126.318V104.106H130.773V99.651Z" fill="#0A1020"/>
<path d="M135.227 99.651H130.773V104.106H135.227V99.651Z" fill="#0A1020"/>
<path d="M139.682 99.651H135.227V104.106H139.682V99.651Z" fill="#0A1020"/>
<path d="M148.591 99.651H144.136V104.106H148.591V99.651Z" fill="#0A1020"/>
<path d="M153.045 99.651H148.591V104.106H153.045V99.651Z" fill="#0A1020"/>
<path d="M157.5 99.651H153.045V104.106H157.5V99.651Z" fill="#0A1020"/>
<path d="M14.9545 104.106H10.5V108.56H14.9545V104.106Z" fill="#0A1020"/>
<path d="M23.8636 104.106H19.4091V108.56H23.8636V104.106Z" fill="#0A1020"/>
<path d="M28.3182 104.106H23.8636V108.56H28.3182V104.106Z" fill="#0A1020"/>
<path d="M32.7727 104.106H28.3182V108.56H32.7727V104.106Z" fill="#0A1020"/>
<path d="M46.1364 104.106H41.6818V108.56H46.1364V104.106Z" fill="#0A1020"/>
<path d="M55.0455 104.106H50.5909V108.56H55.0455V104.106Z" fill="#0A1020"/>
<path d="M63.9546 104.106H59.5V108.56H63.9546V104.106Z" fill="#0A1020"/>
<path d="M72.8636 104.106H68.4091V108.56H72.8636V104.106Z" fill="#0A1020"/>
<path d="M77.3182 104.106H72.8636V108.56H77.3182V104.106Z" fill="#0A1020"/>
<path d="M81.7727 104.106H77.3182V108.56H81.7727V104.106Z" fill="#0A1020"/>
<path d="M86.2273 104.106H81.7727V108.56H86.2273V104.106Z" fill="#0A1020"/>
<path d="M95.1364 104.106H90.6818V108.56H95.1364V104.106Z" fill="#0A1020"/>
<path d="M112.955 104.106H108.5V108.56H112.955V104.106Z" fill="#0A1020"/>
<path d="M117.409 104.106H112.955V108.56H117.409V104.106Z" fill="#0A1020"/>
<path d="M121.864 104.106H117.409V108.56H121.864V104.106Z" fill="#0A1020"/>
<path d="M126.318 104.106H121.864V108.56H126.318V104.106Z" fill="#0A1020"/>
<path d="M135.227 104.106H130.773V108.56H135.227V104.106Z" fill="#0A1020"/>
<path d="M144.136 104.106H139.682V108.56H144.136V104.106Z" fill="#0A1020"/>
<path d="M148.591 104.106H144.136V108.56H148.591V104.106Z" fill="#0A1020"/>
<path d="M153.045 104.106H148.591V108.56H153.045V104.106Z" fill="#0A1020"/>
<path d="M157.5 104.106H153.045V108.56H157.5V104.106Z" fill="#0A1020"/>
<path d="M14.9545 108.56H10.5V113.015H14.9545V108.56Z" fill="#0A1020"/>
<path d="M23.8636 108.56H19.4091V113.015H23.8636V108.56Z" fill="#0A1020"/>
<path d="M28.3182 108.56H23.8636V113.015H28.3182V108.56Z" fill="#0A1020"/>
<path d="M41.6818 108.56H37.2273V113.015H41.6818V108.56Z" fill="#0A1020"/>
<path d="M46.1364 108.56H41.6818V113.015H46.1364V108.56Z" fill="#0A1020"/>
<path d="M63.9546 108.56H59.5V113.015H63.9546V108.56Z" fill="#0A1020"/>
<path d="M68.4091 108.56H63.9546V113.015H68.4091V108.56Z" fill="#0A1020"/>
<path d="M77.3182 108.56H72.8636V113.015H77.3182V108.56Z" fill="#0A1020"/>
<path d="M81.7727 108.56H77.3182V113.015H81.7727V108.56Z" fill="#0A1020"/>
<path d="M86.2273 108.56H81.7727V113.015H86.2273V108.56Z" fill="#0A1020"/>
<path d="M99.5909 108.56H95.1364L95.1364 113.015H99.5909V108.56Z" fill="#0A1020"/>
<path d="M130.773 108.56H126.318V113.015H130.773V108.56Z" fill="#0A1020"/>
<path d="M135.227 108.56H130.773V113.015H135.227V108.56Z" fill="#0A1020"/>
<path d="M144.136 108.56H139.682V113.015H144.136V108.56Z" fill="#0A1020"/>
<path d="M148.591 108.56H144.136V113.015H148.591V108.56Z" fill="#0A1020"/>
<path d="M153.045 108.56H148.591V113.015H153.045V108.56Z" fill="#0A1020"/>
<path d="M14.9545 113.015H10.5V117.469H14.9545V113.015Z" fill="#0A1020"/>
<path d="M19.4091 113.015H14.9545V117.469H19.4091V113.015Z" fill="#0A1020"/>
<path d="M28.3182 113.015H23.8636V117.469H28.3182V113.015Z" fill="#0A1020"/>
<path d="M46.1364 113.015H41.6818V117.469H46.1364V113.015Z" fill="#0A1020"/>
<path d="M50.5909 113.015H46.1364V117.469H50.5909V113.015Z" fill="#0A1020"/>
<path d="M72.8636 113.015H68.4091V117.469H72.8636V113.015Z" fill="#0A1020"/>
<path d="M86.2273 113.015H81.7727V117.469H86.2273V113.015Z" fill="#0A1020"/>
<path d="M90.6818 113.015H86.2273V117.469H90.6818V113.015Z" fill="#0A1020"/>
<path d="M99.5909 113.015H95.1364V117.469H99.5909V113.015Z" fill="#0A1020"/>
<path d="M108.5 113.015H104.045V117.469H108.5V113.015Z" fill="#0A1020"/>
<path d="M130.773 113.015H126.318V117.469H130.773V113.015Z" fill="#0A1020"/>
<path d="M157.5 113.015H153.045V117.469H157.5V113.015Z" fill="#0A1020"/>
<path d="M28.3182 117.469H23.8636V121.924H28.3182V117.469Z" fill="#0A1020"/>
<path d="M32.7727 117.469H28.3182V121.924H32.7727V117.469Z" fill="#0A1020"/>
<path d="M37.2273 117.469H32.7727V121.924H37.2273V117.469Z" fill="#0A1020"/>
<path d="M41.6818 117.469H37.2273V121.924H41.6818V117.469Z" fill="#0A1020"/>
<path d="M50.5909 117.469H46.1364V121.924H50.5909V117.469Z" fill="#0A1020"/>
<path d="M55.0455 117.469H50.5909V121.924H55.0455V117.469Z" fill="#0A1020"/>
<path d="M59.5 117.469H55.0455V121.924H59.5V117.469Z" fill="#0A1020"/>
<path d="M63.9546 117.469H59.5V121.924H63.9546V117.469Z" fill="#0A1020"/>
<path d="M68.4091 117.469H63.9546V121.924H68.4091V117.469Z" fill="#0A1020"/>
<path d="M72.8636 117.469H68.4091V121.924H72.8636V117.469Z" fill="#0A1020"/>
<path d="M77.3182 117.469H72.8636V121.924H77.3182V117.469Z" fill="#0A1020"/>
<path d="M81.7727 117.469H77.3182V121.924H81.7727V117.469Z" fill="#0A1020"/>
<path d="M95.1364 117.469H90.6818V121.924H95.1364L95.1364 117.469Z" fill="#0A1020"/>
<path d="M104.045 117.469H99.5909V121.924H104.045V117.469Z" fill="#0A1020"/>
<path d="M112.955 117.469H108.5V121.924H112.955V117.469Z" fill="#0A1020"/>
<path d="M117.409 117.469H112.955V121.924H117.409V117.469Z" fill="#0A1020"/>
<path d="M121.864 117.469H117.409V121.924H121.864V117.469Z" fill="#0A1020"/>
<path d="M126.318 117.469H121.864V121.924H126.318V117.469Z" fill="#0A1020"/>
<path d="M130.773 117.469H126.318V121.924H130.773V117.469Z" fill="#0A1020"/>
<path d="M135.227 117.469H130.773V121.924H135.227V117.469Z" fill="#0A1020"/>
<path d="M139.682 117.469H135.227V121.924H139.682V117.469Z" fill="#0A1020"/>
<path d="M144.136 117.469H139.682V121.924H144.136V117.469Z" fill="#0A1020"/>
<path d="M153.045 117.469H148.591V121.924H153.045V117.469Z" fill="#0A1020"/>
<path d="M157.5 117.469H153.045V121.924H157.5V117.469Z" fill="#0A1020"/>
<path d="M50.5909 121.924H46.1364V126.378H50.5909V121.924Z" fill="#0A1020"/>
<path d="M72.8636 121.924H68.4091V126.378H72.8636V121.924Z" fill="#0A1020"/>
<path d="M81.7727 121.924H77.3182V126.378H81.7727V121.924Z" fill="#0A1020"/>
<path d="M99.5909 121.924H95.1364L95.1364 126.378H99.5909V121.924Z" fill="#0A1020"/>
<path d="M104.045 121.924H99.5909V126.378H104.045V121.924Z" fill="#0A1020"/>
<path d="M108.5 121.924H104.045V126.378H108.5V121.924Z" fill="#0A1020"/>
<path d="M121.864 121.924H117.409V126.378H121.864V121.924Z" fill="#0A1020"/>
<path d="M139.682 121.924H135.227V126.378H139.682V121.924Z" fill="#0A1020"/>
<path d="M153.045 121.924H148.591V126.378H153.045V121.924Z" fill="#0A1020"/>
<path d="M157.5 121.924H153.045V126.378H157.5V121.924Z" fill="#0A1020"/>
<path d="M14.9545 126.378C12.4944 126.378 10.5 128.373 10.5 130.833H14.9545V126.378Z" fill="#0A1020"/>
<path d="M19.4091 126.378H14.9545V130.833H19.4091V126.378Z" fill="#0A1020"/>
<path d="M23.8636 126.378H19.4091V130.833H23.8636V126.378Z" fill="#0A1020"/>
<path d="M28.3182 126.378H23.8636V130.833H28.3182V126.378Z" fill="#0A1020"/>
<path d="M32.7727 126.378H28.3182V130.833H32.7727V126.378Z" fill="#0A1020"/>
<path d="M37.2273 126.378H32.7727V130.833H37.2273V126.378Z" fill="#0A1020"/>
<path d="M41.6818 130.833C41.6818 128.373 39.6874 126.378 37.2273 126.378V130.833H41.6818Z" fill="#0A1020"/>
<path d="M50.5909 126.378H46.1364V130.833H50.5909V126.378Z" fill="#0A1020"/>
<path d="M55.0455 126.378H50.5909V130.833H55.0455V126.378Z" fill="#0A1020"/>
<path d="M59.5 126.378H55.0455V130.833H59.5V126.378Z" fill="#0A1020"/>
<path d="M63.9546 126.378H59.5V130.833H63.9546V126.378Z" fill="#0A1020"/>
<path d="M68.4091 126.378H63.9546V130.833H68.4091V126.378Z" fill="#0A1020"/>
<path d="M72.8636 126.378H68.4091V130.833H72.8636V126.378Z" fill="#0A1020"/>
<path d="M81.7727 126.378H77.3182V130.833H81.7727V126.378Z" fill="#0A1020"/>
<path d="M86.2273 126.378H81.7727V130.833H86.2273V126.378Z" fill="#0A1020"/>
<path d="M90.6818 126.378H86.2273V130.833H90.6818V126.378Z" fill="#0A1020"/>
<path d="M95.1364 126.378H90.6818V130.833H95.1364L95.1364 126.378Z" fill="#0A1020"/>
<path d="M112.955 126.378H108.5V130.833H112.955V126.378Z" fill="#0A1020"/>
<path d="M121.864 126.378H117.409V130.833H121.864V126.378Z" fill="#0A1020"/>
<path d="M130.773 126.378H126.318V130.833H130.773V126.378Z" fill="#0A1020"/>
<path d="M139.682 126.378H135.227V130.833H139.682V126.378Z" fill="#0A1020"/>
<path d="M144.136 126.378H139.682V130.833H144.136V126.378Z" fill="#0A1020"/>
<path d="M148.591 126.378H144.136V130.833H148.591V126.378Z" fill="#0A1020"/>
<path d="M14.9545 130.833H10.5V135.287H14.9545V130.833Z" fill="#0A1020"/>
<path d="M41.6818 130.833H37.2273V135.287H41.6818V130.833Z" fill="#0A1020"/>
<path d="M50.5909 130.833H46.1364V135.287H50.5909V130.833Z" fill="#0A1020"/>
<path d="M59.5 130.833H55.0455V135.287H59.5V130.833Z" fill="#0A1020"/>
<path d="M63.9546 130.833H59.5V135.287H63.9546V130.833Z" fill="#0A1020"/>
<path d="M77.3182 130.833H72.8636V135.287H77.3182V130.833Z" fill="#0A1020"/>
<path d="M86.2273 130.833H81.7727V135.287H86.2273V130.833Z" fill="#0A1020"/>
<path d="M90.6818 130.833H86.2273V135.287H90.6818V130.833Z" fill="#0A1020"/>
<path d="M95.1364 130.833H90.6818V135.287H95.1364V130.833Z" fill="#0A1020"/>
<path d="M99.5909 130.833H95.1364V135.287H99.5909V130.833Z" fill="#0A1020"/>
<path d="M104.045 130.833H99.5909V135.287H104.045V130.833Z" fill="#0A1020"/>
<path d="M108.5 130.833H104.045V135.287H108.5V130.833Z" fill="#0A1020"/>
<path d="M112.955 130.833H108.5V135.287H112.955V130.833Z" fill="#0A1020"/>
<path d="M117.409 130.833H112.955V135.287H117.409V130.833Z" fill="#0A1020"/>
<path d="M121.864 130.833H117.409V135.287H121.864V130.833Z" fill="#0A1020"/>
<path d="M139.682 130.833H135.227V135.287H139.682V130.833Z" fill="#0A1020"/>
<path d="M148.591 130.833H144.136V135.287H148.591V130.833Z" fill="#0A1020"/>
<path d="M14.9545 135.287H10.5V139.742H14.9545V135.287Z" fill="#0A1020"/>
<path d="M23.8636 135.287C21.4035 135.287 19.4091 137.282 19.4091 139.742H23.8636V135.287Z" fill="#0A1020"/>
<path d="M28.3182 135.287H23.8636V139.742H28.3182V135.287Z" fill="#0A1020"/>
<path d="M32.7727 139.742C32.7727 137.282 30.7784 135.287 28.3182 135.287V139.742H32.7727Z" fill="#0A1020"/>
<path d="M41.6818 135.287H37.2273V139.742H41.6818V135.287Z" fill="#0A1020"/>
<path d="M72.8636 135.287H68.4091V139.742H72.8636V135.287Z" fill="#0A1020"/>
<path d="M77.3182 135.287H72.8636V139.742H77.3182V135.287Z" fill="#0A1020"/>
<path d="M86.2273 135.287H81.7727V139.742H86.2273V135.287Z" fill="#0A1020"/>
<path d="M95.1364 135.287H90.6818V139.742H95.1364V135.287Z" fill="#0A1020"/>
<path d="M112.955 135.287H108.5V139.742H112.955V135.287Z" fill="#0A1020"/>
<path d="M121.864 135.287H117.409V139.742H121.864V135.287Z" fill="#0A1020"/>
<path d="M126.318 135.287H121.864V139.742H126.318V135.287Z" fill="#0A1020"/>
<path d="M130.773 135.287H126.318V139.742H130.773V135.287Z" fill="#0A1020"/>
<path d="M135.227 135.287H130.773V139.742H135.227V135.287Z" fill="#0A1020"/>
<path d="M139.682 135.287H135.227V139.742H139.682V135.287Z" fill="#0A1020"/>
<path d="M148.591 135.287H144.136V139.742H148.591V135.287Z" fill="#0A1020"/>
<path d="M157.5 135.287H153.045V139.742H157.5V135.287Z" fill="#0A1020"/>
<path d="M14.9545 139.742H10.5V144.196H14.9545V139.742Z" fill="#0A1020"/>
<path d="M23.8636 139.742H19.4091V144.196H23.8636V139.742Z" fill="#0A1020"/>
<path d="M28.3182 139.742H23.8636V144.196H28.3182V139.742Z" fill="#0A1020"/>
<path d="M32.7727 139.742H28.3182V144.196H32.7727V139.742Z" fill="#0A1020"/>
<path d="M41.6818 139.742H37.2273V144.196H41.6818V139.742Z" fill="#0A1020"/>
<path d="M50.5909 139.742H46.1364V144.196H50.5909V139.742Z" fill="#0A1020"/>
<path d="M59.5 139.742H55.0455V144.196H59.5V139.742Z" fill="#0A1020"/>
<path d="M63.9546 139.742H59.5V144.196H63.9546V139.742Z" fill="#0A1020"/>
<path d="M72.8636 139.742H68.4091V144.196H72.8636V139.742Z" fill="#0A1020"/>
<path d="M77.3182 139.742H72.8636V144.196H77.3182V139.742Z" fill="#0A1020"/>
<path d="M90.6818 139.742H86.2273V144.196H90.6818V139.742Z" fill="#0A1020"/>
<path d="M95.1364 139.742H90.6818V144.196H95.1364V139.742Z" fill="#0A1020"/>
<path d="M104.045 139.742H99.5909V144.196H104.045V139.742Z" fill="#0A1020"/>
<path d="M112.955 139.742H108.5V144.196H112.955V139.742Z" fill="#0A1020"/>
<path d="M117.409 139.742H112.955V144.196H117.409V139.742Z" fill="#0A1020"/>
<path d="M121.864 139.742H117.409V144.196H121.864V139.742Z" fill="#0A1020"/>
<path d="M130.773 139.742H126.318V144.196H130.773V139.742Z" fill="#0A1020"/>
<path d="M139.682 139.742H135.227V144.196H139.682V139.742Z" fill="#0A1020"/>
<path d="M148.591 139.742H144.136V144.196H148.591V139.742Z" fill="#0A1020"/>
<path d="M14.9545 144.196H10.5V148.651H14.9545V144.196Z" fill="#0A1020"/>
<path d="M23.8636 144.196H19.4091C19.4091 146.657 21.4035 148.651 23.8636 148.651V144.196Z" fill="#0A1020"/>
<path d="M28.3182 144.196H23.8636V148.651H28.3182V144.196Z" fill="#0A1020"/>
<path d="M32.7727 144.196H28.3182V148.651C30.7784 148.651 32.7727 146.657 32.7727 144.196Z" fill="#0A1020"/>
<path d="M41.6818 144.196H37.2273V148.651H41.6818V144.196Z" fill="#0A1020"/>
<path d="M50.5909 144.196H46.1364V148.651H50.5909V144.196Z" fill="#0A1020"/>
<path d="M59.5 144.196H55.0455V148.651H59.5V144.196Z" fill="#0A1020"/>
<path d="M72.8636 144.196H68.4091V148.651H72.8636V144.196Z" fill="#0A1020"/>
<path d="M86.2273 144.196H81.7727V148.651H86.2273V144.196Z" fill="#0A1020"/>
<path d="M95.1364 144.196H90.6818V148.651H95.1364V144.196Z" fill="#0A1020"/>
<path d="M121.864 144.196H117.409V148.651H121.864V144.196Z" fill="#0A1020"/>
<path d="M126.318 144.196H121.864V148.651H126.318V144.196Z" fill="#0A1020"/>
<path d="M139.682 144.196H135.227V148.651H139.682V144.196Z" fill="#0A1020"/>
<path d="M144.136 144.196H139.682V148.651H144.136V144.196Z" fill="#0A1020"/>
<path d="M148.591 144.196H144.136V148.651H148.591V144.196Z" fill="#0A1020"/>
<path d="M14.9545 148.651H10.5V153.106H14.9545V148.651Z" fill="#0A1020"/>
<path d="M41.6818 148.651H37.2273V153.106H41.6818V148.651Z" fill="#0A1020"/>
<path d="M55.0455 148.651H50.5909V153.106H55.0455V148.651Z" fill="#0A1020"/>
<path d="M68.4091 148.651H63.9546V153.106H68.4091V148.651Z" fill="#0A1020"/>
<path d="M77.3182 148.651H72.8636V153.106H77.3182V148.651Z" fill="#0A1020"/>
<path d="M81.7727 148.651H77.3182V153.106H81.7727V148.651Z" fill="#0A1020"/>
<path d="M95.1364 148.651H90.6818V153.106H95.1364V148.651Z" fill="#0A1020"/>
<path d="M104.045 148.651H99.5909V153.106H104.045V148.651Z" fill="#0A1020"/>
<path d="M117.409 148.651H112.955V153.106H117.409V148.651Z" fill="#0A1020"/>
<path d="M130.773 148.651H126.318V153.106H130.773V148.651Z" fill="#0A1020"/>
<path d="M135.227 148.651H130.773V153.106H135.227V148.651Z" fill="#0A1020"/>
<path d="M139.682 148.651H135.227V153.106H139.682V148.651Z" fill="#0A1020"/>
<path d="M144.136 148.651H139.682V153.106H144.136V148.651Z" fill="#0A1020"/>
<path d="M157.5 148.651H153.045V153.106H157.5V148.651Z" fill="#0A1020"/>
<path d="M14.9545 153.106H10.5C10.5 155.566 12.4944 157.56 14.9545 157.56V153.106Z" fill="#0A1020"/>
<path d="M19.4091 153.106H14.9545V157.56H19.4091V153.106Z" fill="#0A1020"/>
<path d="M23.8636 153.106H19.4091V157.56H23.8636V153.106Z" fill="#0A1020"/>
<path d="M28.3182 153.106H23.8636V157.56H28.3182V153.106Z" fill="#0A1020"/>
<path d="M32.7727 153.106H28.3182V157.56H32.7727V153.106Z" fill="#0A1020"/>
<path d="M37.2273 153.106H32.7727V157.56H37.2273V153.106Z" fill="#0A1020"/>
<path d="M41.6818 153.106H37.2273V157.56C39.6875 157.56 41.6818 155.566 41.6818 153.106Z" fill="#0A1020"/>
<path d="M50.5909 153.106H46.1364V157.56H50.5909V153.106Z" fill="#0A1020"/>
<path d="M59.5 153.106H55.0455V157.56H59.5V153.106Z" fill="#0A1020"/>
<path d="M68.4091 153.106H63.9546V157.56H68.4091V153.106Z" fill="#0A1020"/>
<path d="M86.2273 153.106H81.7727V157.56H86.2273V153.106Z" fill="#0A1020"/>
<path d="M90.6818 153.106H86.2273V157.56H90.6818V153.106Z" fill="#0A1020"/>
<path d="M95.1364 153.106H90.6818V157.56H95.1364V153.106Z" fill="#0A1020"/>
<path d="M99.5909 153.106H95.1364V157.56H99.5909V153.106Z" fill="#0A1020"/>
<path d="M112.955 153.106H108.5V157.56H112.955V153.106Z" fill="#0A1020"/>
<path d="M121.864 153.106H117.409V157.56H121.864V153.106Z" fill="#0A1020"/>
<path d="M126.318 153.106H121.864V157.56H126.318V153.106Z" fill="#0A1020"/>
<path d="M135.227 153.106H130.773V157.56H135.227V153.106Z" fill="#0A1020"/>
<path d="M139.682 153.106H135.227V157.56H139.682V153.106Z" fill="#0A1020"/>
<path d="M148.591 153.106H144.136V157.56H148.591V153.106Z" fill="#0A1020"/>
</g>
<defs>
<clipPath id="clip0_11901_7502">
<rect width="168" height="168" rx="12" fill="white"/>
</clipPath>
</defs>
</svg>
