<svg width="40" height="40" viewBox="0 0 40 40" fill="none" xmlns="http://www.w3.org/2000/svg">
<path opacity="0.25" d="M28.884 10.57L20.374 27.5867C20.3395 27.6562 20.2863 27.7148 20.2203 27.7557C20.1544 27.7966 20.0783 27.8183 20.0006 27.8183C19.923 27.8183 19.8469 27.7966 19.781 27.7557C19.715 27.7148 19.6618 27.6562 19.6273 27.5867L11.119 10.5717C11.041 10.4153 11.014 10.2385 11.042 10.066C11.07 9.89359 11.1515 9.7343 11.2749 9.61067C11.3983 9.48705 11.5575 9.40535 11.7299 9.37711C11.9023 9.34888 12.0792 9.37554 12.2356 9.45332L19.2556 12.9617C19.487 13.0773 19.742 13.1374 20.0006 13.1374C20.2592 13.1374 20.5143 13.0773 20.7456 12.9617L27.764 9.45332C27.9203 9.3753 28.0972 9.34838 28.2696 9.37636C28.442 9.40434 28.6013 9.4858 28.725 9.60924C28.8486 9.73268 28.9303 9.89185 28.9585 10.0642C28.9868 10.2367 28.9618 10.4136 28.884 10.57Z" fill="#151515"/>
<path d="M24.167 29.1667H30.8337M9.16699 29.1667H15.8337" stroke="#151515" stroke-width="1.66667" stroke-linecap="round"/>
</svg>
